WorkSans-Thin.ufo
<glyph name="dollar" format="2">
  <advance width="580"/>
  <unicode hex="0024"/>
  <outline>
    <contour>
      <point x="305" y="-100" type="line"/>
      <point x="305" y="0" type="line"/>
      <point x="438" y="1"/>
      <point x="523" y="68"/>
      <point x="523" y="165" type="curve" smooth="yes"/>
      <point x="523" y="287"/>
      <point x="414" y="310"/>
      <point x="305" y="332" type="curve"/>
      <point x="305" y="646" type="line"/>
      <point x="408" y="642"/>
      <point x="476" y="597"/>
      <point x="501" y="502" type="curve"/>
      <point x="514" y="512" type="line"/>
      <point x="486" y="610"/>
      <point x="413" y="656"/>
      <point x="305" y="660" type="curve"/>
      <point x="305" y="760" type="line"/>
      <point x="291" y="760" type="line"/>
      <point x="291" y="660" type="line"/>
      <point x="152" y="660"/>
      <point x="71" y="578"/>
      <point x="71" y="487" type="curve" smooth="yes"/>
      <point x="71" y="365"/>
      <point x="181" y="341"/>
      <point x="291" y="318" type="curve"/>
      <point x="291" y="14" type="line"/>
      <point x="179" y="18"/>
      <point x="93" y="76"/>
      <point x="72" y="179" type="curve"/>
      <point x="57" y="171" type="line"/>
      <point x="83" y="64"/>
      <point x="171" y="4"/>
      <point x="291" y="0" type="curve"/>
      <point x="291" y="-100" type="line"/>
    </contour>
    <contour>
      <point x="305" y="316" type="line"/>
      <point x="408" y="294"/>
      <point x="507" y="271"/>
      <point x="507" y="165" type="curve" smooth="yes"/>
      <point x="507" y="69"/>
      <point x="417" y="15"/>
      <point x="305" y="14" type="curve"/>
    </contour>
    <contour>
      <point x="87" y="487" type="curve" smooth="yes"/>
      <point x="87" y="577"/>
      <point x="166" y="646"/>
      <point x="291" y="646" type="curve"/>
      <point x="291" y="335" type="line"/>
      <point x="187" y="356"/>
      <point x="87" y="378"/>
    </contour>
  </outline>
</glyph>
<glyph name="quotesingle" format="2">
  <advance width="149"/>
  <unicode hex="0027"/>
  <outline>
    <contour>
      <point x="66" y="680" type="line"/>
      <point x="66" y="521" type="line"/>
      <point x="83" y="521" type="line"/>
      <point x="83" y="680" type="line"/>
    </contour>
  </outline>
</glyph>
<glyph name="period" format="2">
  <advance width="168"/>
  <unicode hex="002E"/>
  <anchor x="62" y="17" name="_center"/>
  <outline>
    <contour>
      <point x="62" y="17" type="curve" smooth="yes"/>
      <point x="62" y="4"/>
      <point x="71" y="-5"/>
      <point x="84" y="-5" type="curve" smooth="yes"/>
      <point x="97" y="-5"/>
      <point x="106" y="4"/>
      <point x="106" y="17" type="curve" smooth="yes"/>
      <point x="106" y="30"/>
      <point x="97" y="39"/>
      <point x="84" y="39" type="curve" smooth="yes"/>
      <point x="71" y="39"/>
      <point x="62" y="30"/>
    </contour>
  </outline>
</glyph>
<glyph name="one" format="2">
  <advance width="316"/>
  <unicode hex="0031"/>
  <outline>
    <contour>
      <point x="224" y="660" type="line"/>
      <point x="208" y="660" type="line"/>
      <point x="208" y="613"/>
      <point x="208" y="565"/>
      <point x="208" y="518" type="curve" smooth="yes"/>
      <point x="208" y="0" type="line"/>
      <point x="224" y="0" type="line"/>
      <point x="224" y="518" type="line"/>
    </contour>
    <contour>
      <point x="224" y="660" type="curve"/>
      <point x="208" y="660" type="line"/>
      <point x="174" y="589"/>
      <point x="99" y="539"/>
      <point x="28" y="513" type="curve"/>
      <point x="33" y="500" type="line"/>
      <point x="110" y="524"/>
      <point x="188" y="579"/>
    </contour>
  </outline>
</glyph>
<glyph name="two" format="2">
  <advance width="534"/>
  <unicode hex="0032"/>
  <outline>
    <contour>
      <point x="492" y="0" type="line"/>
      <point x="492" y="14" type="line"/>
      <point x="109" y="14" type="line" smooth="yes"/>
      <point x="100" y="14"/>
      <point x="90" y="14"/>
      <point x="81" y="14" type="curve"/>
      <point x="81" y="15" type="line"/>
      <point x="318" y="214"/>
      <point x="463" y="330"/>
      <point x="463" y="475" type="curve" smooth="yes"/>
      <point x="463" y="597"/>
      <point x="386" y="670"/>
      <point x="260" y="670" type="curve" smooth="yes"/>
      <point x="133" y="670"/>
      <point x="53" y="589"/>
      <point x="47" y="464" type="curve"/>
      <point x="62" y="458" type="line"/>
      <point x="67" y="578"/>
      <point x="142" y="656"/>
      <point x="260" y="656" type="curve" smooth="yes"/>
      <point x="376" y="656"/>
      <point x="448" y="588"/>
      <point x="448" y="475" type="curve" smooth="yes"/>
      <point x="448" y="336"/>
      <point x="290" y="211"/>
      <point x="54" y="14" type="curve"/>
      <point x="54" y="0" type="line"/>
    </contour>
  </outline>
</glyph>
<glyph name="three" format="2">
  <advance width="521"/>
  <unicode hex="0033"/>
  <outline>
    <contour>
      <point x="64" y="535" type="curve"/>
      <point x="80" y="526" type="line"/>
      <point x="104" y="607"/>
      <point x="170" y="656"/>
      <point x="256" y="656" type="curve" smooth="yes"/>
      <point x="364" y="656"/>
      <point x="429" y="597"/>
      <point x="429" y="498" type="curve" smooth="yes"/>
      <point x="429" y="412"/>
      <point x="377" y="340"/>
      <point x="277" y="340" type="curve" smooth="yes"/>
      <point x="227" y="340" type="line"/>
      <point x="227" y="326" type="line"/>
      <point x="277" y="326" type="line" smooth="yes"/>
      <point x="387" y="326"/>
      <point x="446" y="259"/>
      <point x="446" y="171" type="curve" smooth="yes"/>
      <point x="446" y="67"/>
      <point x="364" y="4"/>
      <point x="261" y="4" type="curve" smooth="yes"/>
      <point x="144" y="4"/>
      <point x="75" y="62"/>
      <point x="57" y="150" type="curve"/>
      <point x="43" y="141" type="line"/>
      <point x="64" y="50"/>
      <point x="139" y="-10"/>
      <point x="261" y="-10" type="curve" smooth="yes"/>
      <point x="372" y="-10"/>
      <point x="462" y="60"/>
      <point x="462" y="170" type="curve" smooth="yes"/>
      <point x="462" y="260"/>
      <point x="402" y="326"/>
      <point x="317" y="332" type="curve"/>
      <point x="317" y="333" type="line"/>
      <point x="400" y="347"/>
      <point x="445" y="416"/>
      <point x="445" y="498" type="curve" smooth="yes"/>
      <point x="445" y="606"/>
      <point x="374" y="670"/>
      <point x="256" y="670" type="curve" smooth="yes"/>
      <point x="165" y="670"/>
      <point x="93" y="619"/>
    </contour>
  </outline>
</glyph>
<glyph name="eight" format="2">
  <advance width="562"/>
  <unicode hex="0038"/>
  <outline>
    <contour>
      <point x="83" y="508" type="curve" smooth="yes"/>
      <point x="83" y="424"/>
      <point x="137" y="366"/>
      <point x="226" y="348" type="curve"/>
      <point x="226" y="347" type="line"/>
      <point x="124" y="330"/>
      <point x="55" y="261"/>
      <point x="55" y="169" type="curve" smooth="yes"/>
      <point x="55" y="64"/>
      <point x="148" y="-10"/>
      <point x="281" y="-10" type="curve" smooth="yes"/>
      <point x="414" y="-10"/>
      <point x="507" y="64"/>
      <point x="507" y="169" type="curve" smooth="yes"/>
      <point x="507" y="259"/>
      <point x="440" y="329"/>
      <point x="336" y="347" type="curve"/>
      <point x="336" y="348" type="line"/>
      <point x="425" y="366"/>
      <point x="479" y="424"/>
      <point x="479" y="508" type="curve" smooth="yes"/>
      <point x="479" y="606"/>
      <point x="401" y="670"/>
      <point x="281" y="670" type="curve" smooth="yes"/>
      <point x="160" y="670"/>
      <point x="83" y="606"/>
    </contour>
    <contour>
      <point x="463" y="508" type="curve" smooth="yes"/>
      <point x="463" y="417"/>
      <point x="391" y="355"/>
      <point x="281" y="355" type="curve" smooth="yes"/>
      <point x="171" y="355"/>
      <point x="99" y="417"/>
      <point x="99" y="508" type="curve" smooth="yes"/>
      <point x="99" y="598"/>
      <point x="171" y="656"/>
      <point x="281" y="656" type="curve" smooth="yes"/>
      <point x="391" y="656"/>
      <point x="463" y="598"/>
    </contour>
    <contour>
      <point x="71" y="169" type="curve" smooth="yes"/>
      <point x="71" y="268"/>
      <point x="157" y="339"/>
      <point x="281" y="339" type="curve" smooth="yes"/>
      <point x="405" y="339"/>
      <point x="491" y="268"/>
      <point x="491" y="169" type="curve" smooth="yes"/>
      <point x="491" y="72"/>
      <point x="405" y="4"/>
      <point x="281" y="4" type="curve" smooth="yes"/>
      <point x="157" y="4"/>
      <point x="71" y="72"/>
    </contour>
  </outline>
</glyph>
<glyph name="B" format="2">
  <advance width="609"/>
  <unicode hex="0042"/>
  <anchor x="297" y="660" name="top"/>
  <anchor x="331" y="0" name="ogonek"/>
  <anchor x="297" y="0" name="bottom"/>
  <anchor x="280" y="0" name="bottomC"/>
  <outline>
    <contour>
      <point x="331" y="0" type="line" smooth="yes"/>
      <point x="476" y="0"/>
      <point x="552" y="58"/>
      <point x="552" y="169" type="curve" smooth="yes"/>
      <point x="552" y="263"/>
      <point x="496" y="320"/>
      <point x="401" y="333" type="curve"/>
      <point x="401" y="334" type="line"/>
      <point x="490" y="353"/>
      <point x="533" y="407"/>
      <point x="533" y="493" type="curve" smooth="yes"/>
      <point x="533" y="603"/>
      <point x="464" y="660"/>
      <point x="331" y="660" type="curve" smooth="yes"/>
      <point x="99" y="660" type="line"/>
      <point x="99" y="0" type="line"/>
    </contour>
    <contour>
      <point x="115" y="326" type="line"/>
      <point x="331" y="326" type="line" smooth="yes"/>
      <point x="466" y="326"/>
      <point x="536" y="274"/>
      <point x="536" y="170" type="curve" smooth="yes"/>
      <point x="536" y="67"/>
      <point x="466" y="14"/>
      <point x="331" y="14" type="curve" smooth="yes"/>
      <point x="115" y="14" type="line"/>
    </contour>
    <contour>
      <point x="115" y="646" type="line"/>
      <point x="331" y="646" type="line" smooth="yes"/>
      <point x="453" y="646"/>
      <point x="517" y="593"/>
      <point x="517" y="492" type="curve" smooth="yes"/>
      <point x="517" y="391"/>
      <point x="453" y="340"/>
      <point x="331" y="340" type="curve" smooth="yes"/>
      <point x="115" y="340" type="line"/>
    </contour>
  </outline>
</glyph>
<glyph name="C" format="2">
  <advance width="649"/>
  <unicode hex="0043"/>
  <anchor x="339" y="660" name="top"/>
  <anchor x="434" y="0" name="ogonek"/>
  <anchor x="339" y="0" name="bottom"/>
  <anchor x="336" y="0" name="bottomC"/>
  <outline>
    <contour>
      <point x="595" y="171" type="line"/>
      <point x="564" y="65"/>
      <point x="475" y="4"/>
      <point x="349" y="4" type="curve" smooth="yes"/>
      <point x="184" y="4"/>
      <point x="72" y="130"/>
      <point x="72" y="330" type="curve" smooth="yes"/>
      <point x="72" y="530"/>
      <point x="183" y="656"/>
      <point x="349" y="656" type="curve" smooth="yes"/>
      <point x="478" y="656"/>
      <point x="557" y="601"/>
      <point x="590" y="489" type="curve"/>
      <point x="605" y="496" type="line"/>
      <point x="572" y="612"/>
      <point x="488" y="670"/>
      <point x="349" y="670" type="curve" smooth="yes"/>
      <point x="173" y="670"/>
      <point x="56" y="539"/>
      <point x="56" y="330" type="curve" smooth="yes"/>
      <point x="56" y="121"/>
      <point x="174" y="-10"/>
      <point x="349" y="-10" type="curve" smooth="yes"/>
      <point x="482" y="-10"/>
      <point x="577" y="54"/>
      <point x="610" y="165" type="curve"/>
    </contour>
  </outline>
</glyph>
<glyph name="G" format="2">
  <advance width="676"/>
  <unicode hex="0047"/>
  <anchor x="343" y="660" name="top"/>
  <anchor x="430" y="0" name="ogonek"/>
  <anchor x="351" y="0" name="bottom"/>
  <anchor x="336" y="0" name="bottomC"/>
  <outline>
    <contour>
      <point x="602" y="228" type="curve"/>
      <point x="594" y="244" type="line"/>
      <point x="594" y="157"/>
      <point x="545" y="4"/>
      <point x="345" y="4" type="curve" smooth="yes"/>
      <point x="180" y="4"/>
      <point x="72" y="130"/>
      <point x="72" y="330" type="curve" smooth="yes"/>
      <point x="72" y="530"/>
      <point x="183" y="656"/>
      <point x="349" y="656" type="curve" smooth="yes"/>
      <point x="479" y="656"/>
      <point x="558" y="601"/>
      <point x="591" y="489" type="curve"/>
      <point x="605" y="496" type="line"/>
      <point x="572" y="612"/>
      <point x="488" y="670"/>
      <point x="349" y="670" type="curve" smooth="yes"/>
      <point x="173" y="670"/>
      <point x="56" y="539"/>
      <point x="56" y="330" type="curve" smooth="yes"/>
      <point x="56" y="121"/>
      <point x="170" y="-10"/>
      <point x="345" y="-10" type="curve" smooth="yes"/>
      <point x="511" y="-10"/>
      <point x="602" y="85"/>
    </contour>
    <contour>
      <point x="610" y="0" type="line"/>
      <point x="610" y="311" type="line"/>
      <point x="353" y="311" type="line"/>
      <point x="353" y="297" type="line"/>
      <point x="594" y="297" type="line"/>
      <point x="594" y="200" type="line"/>
      <point x="594" y="191" type="line"/>
      <point x="594" y="0" type="line"/>
    </contour>
  </outline>
</glyph>
<glyph name="H" format="2">
  <advance width="696"/>
  <unicode hex="0048"/>
  <anchor x="348" y="660" name="top"/>
  <anchor x="597" y="0" name="ogonek"/>
  <anchor x="348" y="0" name="bottom"/>
  <anchor x="597" y="0" name="bottomC"/>
  <outline>
    <contour>
      <point x="581" y="660" type="line"/>
      <point x="581" y="0" type="line"/>
      <point x="597" y="0" type="line"/>
      <point x="597" y="660" type="line"/>
    </contour>
    <contour>
      <point x="99" y="660" type="line"/>
      <point x="99" y="0" type="line"/>
      <point x="115" y="0" type="line"/>
      <point x="115" y="660" type="line"/>
    </contour>
    <contour>
      <point x="107" y="344" type="line"/>
      <point x="107" y="330" type="line"/>
      <point x="590" y="330" type="line"/>
      <point x="590" y="344" type="line"/>
    </contour>
  </outline>
</glyph>
<glyph name="J" format="2">
  <advance width="498"/>
  <unicode hex="004A"/>
  <anchor x="398" y="660" name="top"/>
  <anchor x="274" y="0" name="ogonek"/>
  <anchor x="219" y="0" name="bottom"/>
  <anchor x="223" y="0" name="bottomC"/>
  <outline>
    <contour>
      <point x="390" y="660" type="line"/>
      <point x="390" y="209" type="line" smooth="yes"/>
      <point x="390" y="84"/>
      <point x="330" y="4"/>
      <point x="212" y="4" type="curve" smooth="yes"/>
      <point x="92" y="4"/>
      <point x="30" y="76"/>
      <point x="48" y="208" type="curve"/>
      <point x="32" y="200" type="line"/>
      <point x="14" y="74"/>
      <point x="80" y="-10"/>
      <point x="212" y="-10" type="curve" smooth="yes"/>
      <point x="340" y="-10"/>
      <point x="406" y="75"/>
      <point x="406" y="209" type="curve" smooth="yes"/>
      <point x="406" y="660" type="line"/>
    </contour>
  </outline>
</glyph>
<glyph name="O" format="2">
  <advance width="714"/>
  <unicode hex="004F"/>
  <anchor x="357" y="660" name="top"/>
  <anchor x="433" y="0" name="ogonek"/>
  <anchor x="357" y="0" name="bottom"/>
  <anchor x="357" y="0" name="bottomC"/>
  <outline>
    <contour>
      <point x="56" y="330" type="curve" smooth="yes"/>
      <point x="56" y="121"/>
      <point x="172" y="-10"/>
      <point x="357" y="-10" type="curve" smooth="yes"/>
      <point x="542" y="-10"/>
      <point x="658" y="121"/>
      <point x="658" y="330" type="curve" smooth="yes"/>
      <point x="658" y="539"/>
      <point x="542" y="670"/>
      <point x="357" y="670" type="curve" smooth="yes"/>
      <point x="172" y="670"/>
      <point x="56" y="539"/>
    </contour>
    <contour>
      <point x="642" y="330" type="curve" smooth="yes"/>
      <point x="642" y="130"/>
      <point x="532" y="4"/>
      <point x="357" y="4" type="curve" smooth="yes"/>
      <point x="182" y="4"/>
      <point x="72" y="130"/>
      <point x="72" y="330" type="curve" smooth="yes"/>
      <point x="72" y="530"/>
      <point x="182" y="656"/>
      <point x="357" y="656" type="curve" smooth="yes"/>
      <point x="532" y="656"/>
      <point x="642" y="530"/>
    </contour>
  </outline>
</glyph>
<glyph name="R" format="2">
  <advance width="611"/>
  <unicode hex="0052"/>
  <anchor x="293" y="660" name="top"/>
  <anchor x="576" y="0" name="ogonek"/>
  <anchor x="346" y="0" name="bottom"/>
  <anchor x="576" y="0" name="bottomC"/>
  <outline>
    <contour>
      <point x="107" y="660" type="line"/>
      <point x="107" y="646" type="line"/>
      <point x="338" y="646" type="line" smooth="yes"/>
      <point x="459" y="646"/>
      <point x="531" y="584"/>
      <point x="531" y="480" type="curve" smooth="yes"/>
      <point x="531" y="376"/>
      <point x="459" y="314"/>
      <point x="338" y="314" type="curve" smooth="yes"/>
      <point x="107" y="314" type="line"/>
      <point x="107" y="300" type="line"/>
      <point x="338" y="300" type="line" smooth="yes"/>
      <point x="467" y="300"/>
      <point x="547" y="368"/>
      <point x="547" y="480" type="curve" smooth="yes"/>
      <point x="547" y="592"/>
      <point x="467" y="660"/>
      <point x="338" y="660" type="curve" smooth="yes"/>
    </contour>
    <contour>
      <point x="99" y="660" type="line"/>
      <point x="99" y="0" type="line"/>
      <point x="115" y="0" type="line"/>
      <point x="115" y="660" type="line"/>
    </contour>
    <contour>
      <point x="356" y="304" type="line"/>
      <point x="558" y="0" type="line"/>
      <point x="576" y="0" type="line"/>
      <point x="369" y="314" type="line"/>
    </contour>
  </outline>
</glyph>
<glyph name="S" format="2">
  <advance width="594"/>
  <unicode hex="0053"/>
  <anchor x="290" y="660" name="top"/>
  <anchor x="393" y="0" name="ogonek"/>
  <anchor x="311" y="0" name="bottom"/>
  <anchor x="279" y="0" name="bottomC"/>
  <outline>
    <contour>
      <point x="60" y="492" type="curve" smooth="yes"/>
      <point x="60" y="395"/>
      <point x="121" y="347"/>
      <point x="313" y="315" type="curve" smooth="yes"/>
      <point x="475" y="288"/>
      <point x="532" y="242"/>
      <point x="532" y="160" type="curve" smooth="yes"/>
      <point x="532" y="60"/>
      <point x="433" y="4"/>
      <point x="309" y="4" type="curve" smooth="yes"/>
      <point x="179" y="4"/>
      <point x="75" y="57"/>
      <point x="57" y="174" type="curve"/>
      <point x="42" y="166" type="line"/>
      <point x="64" y="45"/>
      <point x="171" y="-10"/>
      <point x="309" y="-10" type="curve" smooth="yes"/>
      <point x="450" y="-10"/>
      <point x="548" y="60"/>
      <point x="548" y="160" type="curve" smooth="yes"/>
      <point x="548" y="254"/>
      <point x="486" y="302"/>
      <point x="316" y="331" type="curve" smooth="yes"/>
      <point x="131" y="363"/>
      <point x="76" y="407"/>
      <point x="76" y="492" type="curve" smooth="yes"/>
      <point x="76" y="584"/>
      <point x="161" y="656"/>
      <point x="295" y="656" type="curve" smooth="yes"/>
      <point x="415" y="656"/>
      <point x="496" y="610"/>
      <point x="523" y="507" type="curve"/>
      <point x="536" y="517" type="line"/>
      <point x="505" y="623"/>
      <point x="420" y="670"/>
      <point x="295" y="670" type="curve" smooth="yes"/>
      <point x="147" y="670"/>
      <point x="60" y="586"/>
    </contour>
  </outline>
</glyph>
<glyph name="U" format="2">
  <advance width="680"/>
  <unicode hex="0055"/>
  <anchor x="340" y="660" name="top"/>
  <anchor x="436" y="8" name="ogonek"/>
  <anchor x="340" y="0" name="bottom"/>
  <anchor x="340" y="0" name="bottomC"/>
  <outline>
    <contour>
      <point x="573" y="660" type="line"/>
      <point x="573" y="235" type="line" smooth="yes"/>
      <point x="573" y="88"/>
      <point x="486" y="4"/>
      <point x="340" y="4" type="curve" smooth="yes"/>
      <point x="194" y="4"/>
      <point x="107" y="88"/>
      <point x="107" y="235" type="curve" smooth="yes"/>
      <point x="107" y="660" type="line"/>
      <point x="91" y="660" type="line"/>
      <point x="91" y="235" type="line" smooth="yes"/>
      <point x="91" y="78"/>
      <point x="184" y="-10"/>
      <point x="340" y="-10" type="curve" smooth="yes"/>
      <point x="496" y="-10"/>
      <point x="589" y="78"/>
      <point x="589" y="235" type="curve" smooth="yes"/>
      <point x="589" y="660" type="line"/>
    </contour>
  </outline>
</glyph>
<glyph name="W" format="2">
  <advance width="909"/>
  <unicode hex="0057"/>
  <anchor x="455" y="660" name="top"/>
  <anchor x="668" y="0" name="ogonek"/>
  <anchor x="455" y="0" name="bottom"/>
  <anchor x="668" y="0" name="bottomC"/>
  <outline>
    <contour>
      <point x="454" y="638" type="line"/>
      <point x="455" y="638" type="line"/>
      <point x="496" y="502" type="line"/>
      <point x="647" y="0" type="line"/>
      <point x="668" y="0" type="line"/>
      <point x="886" y="660" type="line"/>
      <point x="869" y="660" type="line"/>
      <point x="657" y="16" type="line"/>
      <point x="465" y="660" type="line"/>
      <point x="444" y="660" type="line"/>
      <point x="252" y="16" type="line"/>
      <point x="40" y="660" type="line"/>
      <point x="23" y="660" type="line"/>
      <point x="241" y="0" type="line"/>
      <point x="262" y="0" type="line"/>
      <point x="414" y="502" type="line"/>
    </contour>
  </outline>
</glyph>
<glyph name="j" format="2">
  <advance width="186"/>
  <unicode hex="006A"/>
  <anchor x="93" y="632" name="top"/>
  <anchor x="23" y="-204" name="ogonek"/>
  <anchor x="-1" y="-210" name="bottom"/>
  <anchor x="-1" y="-210" name="bottomC"/>
  <outline>
    <contour>
      <point x="71" y="620" type="curve" smooth="yes"/>
      <point x="71" y="607"/>
      <point x="80" y="598"/>
      <point x="93" y="598" type="curve" smooth="yes"/>
      <point x="106" y="598"/>
      <point x="115" y="607"/>
      <point x="115" y="620" type="curve" smooth="yes"/>
      <point x="115" y="633"/>
      <point x="106" y="642"/>
      <point x="93" y="642" type="curve" smooth="yes"/>
      <point x="80" y="642"/>
      <point x="71" y="633"/>
    </contour>
    <component base="jdotless"/>
  </outline>
</glyph>
<glyph name="l" format="2">
  <advance width="237"/>
  <unicode hex="006C"/>
  <anchor x="216" y="360" name="center"/>
  <anchor x="179" y="0" name="bottom"/>
  <anchor x="89" y="730" name="top"/>
  <anchor x="147" y="0" name="bottomC"/>
  <anchor x="211" y="730" name="topright"/>
  <anchor x="221" y="0" name="ogonek"/>
  <outline>
    <contour>
      <point x="81" y="730" type="line"/>
      <point x="81" y="107" type="line" smooth="yes"/>
      <point x="81" y="25"/>
      <point x="111" y="-10"/>
      <point x="170" y="-10" type="curve" smooth="yes"/>
      <point x="196" y="-10"/>
      <point x="215" y="-5"/>
      <point x="228" y="2" type="curve"/>
      <point x="228" y="16" type="line"/>
      <point x="212" y="8"/>
      <point x="199" y="4"/>
      <point x="170" y="4" type="curve" smooth="yes"/>
      <point x="121" y="4"/>
      <point x="97" y="34"/>
      <point x="97" y="107" type="curve" smooth="yes"/>
      <point x="97" y="730" type="line"/>
    </contour>
  </outline>
</glyph>
<glyph name="p" format="2">
  <advance width="585"/>
  <unicode hex="0070"/>
  <anchor x="302" y="500" name="top"/>
  <anchor x="423" y="21" name="ogonek"/>
  <anchor x="93" y="-210" name="bottom"/>
  <anchor x="303" y="0" name="bottomC"/>
  <outline>
    <contour>
      <point x="85" y="500" type="line"/>
      <point x="85" y="399" type="line"/>
      <point x="85" y="-210" type="line"/>
      <point x="101" y="-210" type="line"/>
      <point x="101" y="317" type="line"/>
      <point x="101" y="321" type="line"/>
      <point x="101" y="500" type="line"/>
    </contour>
    <component base="bowl" xScale="-1" yScale="-1" xOffset="658" yOffset="500"/>
  </outline>
</glyph>
<glyph name="r" format="2">
  <advance width="343"/>
  <unicode hex="0072"/>
  <anchor x="195" y="500" name="top"/>
  <anchor x="101" y="0" name="ogonek"/>
  <anchor x="95" y="0" name="bottom"/>
  <anchor x="101" y="0" name="bottomC"/>
  <outline>
    <contour>
      <point x="92" y="305" type="curve"/>
      <point x="101" y="291" type="line"/>
      <point x="101" y="395"/>
      <point x="170" y="496"/>
      <point x="263" y="496" type="curve" smooth="yes"/>
      <point x="300" y="496"/>
      <point x="314" y="487"/>
      <point x="327" y="474" type="curve"/>
      <point x="336" y="486" type="line"/>
      <point x="322" y="500"/>
      <point x="301" y="510"/>
      <point x="265" y="510" type="curve" smooth="yes"/>
      <point x="162" y="510"/>
      <point x="92" y="411"/>
    </contour>
    <contour>
      <point x="85" y="500" type="line"/>
      <point x="85" y="0" type="line"/>
      <point x="101" y="0" type="line"/>
      <point x="101" y="334" type="line"/>
      <point x="101" y="341" type="line"/>
      <point x="101" y="500" type="line"/>
    </contour>
  </outline>
</glyph>
<glyph name="s" format="2">
  <advance width="479"/>
  <unicode hex="0073"/>
  <anchor x="239" y="500" name="top"/>
  <anchor x="370" y="21" name="ogonek"/>
  <anchor x="252" y="0" name="bottom"/>
  <anchor x="232" y="0" name="bottomC"/>
  <outline>
    <contour>
      <point x="432" y="124" type="curve" smooth="yes"/>
      <point x="432" y="194"/>
      <point x="386" y="231"/>
      <point x="251" y="254" type="curve" smooth="yes"/>
      <point x="119" y="277"/>
      <point x="75" y="312"/>
      <point x="75" y="378" type="curve" smooth="yes"/>
      <point x="75" y="445"/>
      <point x="146" y="496"/>
      <point x="244" y="496" type="curve" smooth="yes"/>
      <point x="338" y="496"/>
      <point x="398" y="459"/>
      <point x="415" y="377" type="curve"/>
      <point x="429" y="385" type="line"/>
      <point x="410" y="472"/>
      <point x="346" y="510"/>
      <point x="244" y="510" type="curve" smooth="yes"/>
      <point x="137" y="510"/>
      <point x="59" y="451"/>
      <point x="59" y="374" type="curve" smooth="yes"/>
      <point x="59" y="302"/>
      <point x="106" y="264"/>
      <point x="246" y="240" type="curve" smooth="yes"/>
      <point x="375" y="218"/>
      <point x="416" y="184"/>
      <point x="416" y="124" type="curve" smooth="yes"/>
      <point x="416" y="51"/>
      <point x="349" y="4"/>
      <point x="243" y="4" type="curve" smooth="yes"/>
      <point x="142" y="4"/>
      <point x="69" y="43"/>
      <point x="52" y="118" type="curve"/>
      <point x="37" y="111" type="line"/>
      <point x="56" y="31"/>
      <point x="136" y="-10"/>
      <point x="240" y="-10" type="curve" smooth="yes"/>
      <point x="358" y="-10"/>
      <point x="432" y="41"/>
    </contour>
  </outline>
</glyph>
<glyph name="x" format="2">
  <advance width="472"/>
  <unicode hex="0078"/>
  <anchor x="236" y="500" name="top"/>
  <anchor x="462" y="0" name="ogonek"/>
  <anchor x="236" y="0" name="bottom"/>
  <anchor x="462" y="0" name="bottomC"/>
  <outline>
    <contour>
      <point x="26" y="500" type="line"/>
      <point x="227" y="256" type="line"/>
      <point x="231" y="251" type="line"/>
      <point x="438" y="0" type="line"/>
      <point x="462" y="0" type="line"/>
      <point x="241" y="268" type="line"/>
      <point x="237" y="273" type="line"/>
      <point x="50" y="500" type="line"/>
    </contour>
    <contour>
      <point x="411" y="500" type="line"/>
      <point x="230" y="269" type="line"/>
      <point x="227" y="265" type="line"/>
      <point x="19" y="0" type="line"/>
      <point x="41" y="0" type="line"/>
      <point x="237" y="250" type="line"/>
      <point x="244" y="259" type="line"/>
      <point x="433" y="500" type="line"/>
    </contour>
  </outline>
</glyph>
<glyph name="z" format="2">
  <advance width="472"/>
  <unicode hex="007A"/>
  <anchor x="237" y="500" name="top"/>
  <anchor x="445" y="0" name="ogonek"/>
  <anchor x="237" y="0" name="bottom"/>
  <anchor x="237" y="0" name="bottomC"/>
  <outline>
    <contour>
      <point x="445" y="0" type="line"/>
      <point x="445" y="14" type="line"/>
      <point x="142" y="14" type="line"/>
      <point x="60" y="14" type="line"/>
      <point x="117" y="83" type="line"/>
      <point x="429" y="486" type="line"/>
      <point x="429" y="500" type="line"/>
      <point x="31" y="500" type="line"/>
      <point x="31" y="486" type="line"/>
      <point x="342" y="486" type="line"/>
      <point x="410" y="486" type="line"/>
      <point x="370" y="437" type="line"/>
      <point x="39" y="14" type="line"/>
      <point x="39" y="0" type="line"/>
    </contour>
  </outline>
</glyph>
<glyph name="brokenbar" format="2">
  <advance width="181"/>
  <unicode hex="00A6"/>
  <outline>
    <contour>
      <point x="83" y="730" type="line"/>
      <point x="83" y="364" type="line"/>
      <point x="98" y="364" type="line"/>
      <point x="98" y="730" type="line"/>
    </contour>
    <contour>
      <point x="83" y="198" type="line"/>
      <point x="83" y="-168" type="line"/>
      <point x="98" y="-168" type="line"/>
      <point x="98" y="198" type="line"/>
    </contour>
  </outline>
</glyph>
<glyph name="dieresis" format="2">
  <advance width="550"/>
  <unicode hex="00A8"/>
  <anchor x="276" y="500" name="_top"/>
  <outline>
    <contour>
      <point x="161" y="620" type="curve" smooth="yes"/>
      <point x="161" y="607"/>
      <point x="170" y="598"/>
      <point x="183" y="598" type="curve" smooth="yes"/>
      <point x="196" y="598"/>
      <point x="205" y="607"/>
      <point x="205" y="620" type="curve" smooth="yes"/>
      <point x="205" y="633"/>
      <point x="196" y="642"/>
      <point x="183" y="642" type="curve" smooth="yes"/>
      <point x="170" y="642"/>
      <point x="161" y="633"/>
    </contour>
    <contour>
      <point x="345" y="620" type="curve" smooth="yes"/>
      <point x="345" y="607"/>
      <point x="354" y="598"/>
      <point x="367" y="598" type="curve" smooth="yes"/>
      <point x="380" y="598"/>
      <point x="389" y="607"/>
      <point x="389" y="620" type="curve" smooth="yes"/>
      <point x="389" y="633"/>
      <point x="380" y="642"/>
      <point x="367" y="642" type="curve" smooth="yes"/>
      <point x="354" y="642"/>
      <point x="345" y="633"/>
    </contour>
  </outline>
</glyph>
<glyph name="copyright" format="2">
  <advance width="796"/>
  <unicode hex="00A9"/>
  <outline>
    <contour>
      <point x="56" y="330" type="curve" smooth="yes"/>
      <point x="56" y="126"/>
      <point x="193" y="-10"/>
      <point x="398" y="-10" type="curve" smooth="yes"/>
      <point x="603" y="-10"/>
      <point x="740" y="126"/>
      <point x="740" y="330" type="curve" smooth="yes"/>
      <point x="740" y="534"/>
      <point x="603" y="670"/>
      <point x="398" y="670" type="curve" smooth="yes"/>
      <point x="193" y="670"/>
      <point x="56" y="534"/>
    </contour>
    <contour>
      <point x="228" y="328" type="curve" smooth="yes"/>
      <point x="228" y="212"/>
      <point x="296" y="143"/>
      <point x="410" y="143" type="curve" smooth="yes"/>
      <point x="485" y="143"/>
      <point x="546" y="186"/>
      <point x="564" y="253" type="curve"/>
      <point x="549" y="259" type="line"/>
      <point x="534" y="197"/>
      <point x="479" y="157"/>
      <point x="409" y="157" type="curve" smooth="yes"/>
      <point x="306" y="157"/>
      <point x="244" y="221"/>
      <point x="244" y="328" type="curve" smooth="yes"/>
      <point x="244" y="435"/>
      <point x="306" y="499"/>
      <point x="409" y="499" type="curve" smooth="yes"/>
      <point x="480" y="499"/>
      <point x="526" y="468"/>
      <point x="545" y="406" type="curve"/>
      <point x="559" y="413" type="line"/>
      <point x="537" y="479"/>
      <point x="486" y="513"/>
      <point x="410" y="513" type="curve" smooth="yes"/>
      <point x="296" y="513"/>
      <point x="228" y="444"/>
    </contour>
    <contour>
      <point x="724" y="330" type="curve" smooth="yes"/>
      <point x="724" y="135"/>
      <point x="593" y="4"/>
      <point x="398" y="4" type="curve" smooth="yes"/>
      <point x="203" y="4"/>
      <point x="72" y="135"/>
      <point x="72" y="330" type="curve" smooth="yes"/>
      <point x="72" y="525"/>
      <point x="203" y="656"/>
      <point x="398" y="656" type="curve" smooth="yes"/>
      <point x="593" y="656"/>
      <point x="724" y="525"/>
    </contour>
  </outline>
</glyph>
<glyph name="germandbls" format="2">
  <advance width="555"/>
  <unicode hex="00DF"/>
  <anchor x="296" y="730" name="top"/>
  <anchor x="428" y="21" name="ogonek"/>
  <anchor x="296" y="0" name="bottom"/>
  <anchor x="300" y="0" name="bottomC"/>
  <outline>
    <contour>
      <point x="323" y="378" type="line"/>
      <point x="409" y="382"/>
      <point x="477" y="453"/>
      <point x="477" y="561" type="curve" smooth="yes"/>
      <point x="477" y="671"/>
      <point x="407" y="735"/>
      <point x="293" y="735" type="curve" smooth="yes"/>
      <point x="157" y="735"/>
      <point x="85" y="660"/>
      <point x="85" y="516" type="curve" smooth="yes"/>
      <point x="85" y="0" type="line"/>
      <point x="100" y="0" type="line"/>
      <point x="100" y="505" type="line" smooth="yes"/>
      <point x="100" y="647"/>
      <point x="167" y="721"/>
      <point x="293" y="721" type="curve" smooth="yes"/>
      <point x="397" y="721"/>
      <point x="461" y="662"/>
      <point x="461" y="563" type="curve" smooth="yes"/>
      <point x="461" y="449"/>
      <point x="390" y="384"/>
      <point x="292" y="384" type="curve" smooth="yes"/>
      <point x="248" y="384" type="line"/>
      <point x="248" y="370" type="line"/>
      <point x="292" y="370" type="line" smooth="yes"/>
      <point x="408" y="370"/>
      <point x="490" y="310"/>
      <point x="490" y="182" type="curve" smooth="yes"/>
      <point x="490" y="73"/>
      <point x="422" y="3"/>
      <point x="320" y="3" type="curve" smooth="yes"/>
      <point x="279" y="3"/>
      <point x="249" y="15"/>
      <point x="224" y="44" type="curve"/>
      <point x="215" y="34" type="line"/>
      <point x="238" y="5"/>
      <point x="276" y="-10"/>
      <point x="320" y="-10" type="curve" smooth="yes"/>
      <point x="431" y="-10"/>
      <point x="506" y="65"/>
      <point x="506" y="182" type="curve" smooth="yes"/>
      <point x="506" y="299"/>
      <point x="440" y="371"/>
      <point x="323" y="377" type="curve"/>
    </contour>
  </outline>
</glyph>
<glyph name="idieresis" format="2">
  <advance width="186"/>
  <unicode hex="00EF"/>
  <anchor x="101" y="0" name="bottomC"/>
  <anchor x="93" y="500" name="top"/>
  <anchor x="101" y="0" name="ogonek"/>
  <anchor x="93" y="0" name="bottom"/>
  <outline>
    <contour>
      <point x="165" y="620" type="curve" smooth="yes"/>
      <point x="165" y="633"/>
      <point x="156" y="642"/>
      <point x="143" y="642" type="curve" smooth="yes"/>
      <point x="130" y="642"/>
      <point x="121" y="633"/>
      <point x="121" y="620" type="curve" smooth="yes"/>
      <point x="121" y="607"/>
      <point x="130" y="598"/>
      <point x="143" y="598" type="curve" smooth="yes"/>
      <point x="156" y="598"/>
      <point x="165" y="607"/>
    </contour>
    <contour>
      <point x="65" y="620" type="curve" smooth="yes"/>
      <point x="65" y="633"/>
      <point x="56" y="642"/>
      <point x="43" y="642" type="curve" smooth="yes"/>
      <point x="30" y="642"/>
      <point x="21" y="633"/>
      <point x="21" y="620" type="curve" smooth="yes"/>
      <point x="21" y="607"/>
      <point x="30" y="598"/>
      <point x="43" y="598" type="curve" smooth="yes"/>
      <point x="56" y="598"/>
      <point x="65" y="607"/>
    </contour>
    <component base="idotless"/>
  </outline>
</glyph>
<glyph name="thorn" format="2">
  <advance width="585"/>
  <unicode hex="00FE"/>
  <anchor x="93" y="730" name="top"/>
  <anchor x="425" y="21" name="ogonek"/>
  <anchor x="93" y="-210" name="bottom"/>
  <anchor x="305" y="0" name="bottomC"/>
  <outline>
    <contour>
      <point x="85" y="730" type="line"/>
      <point x="85" y="-210" type="line"/>
      <point x="101" y="-210" type="line"/>
      <point x="101" y="730" type="line"/>
    </contour>
    <contour>
      <point x="91" y="267" type="curve"/>
      <point x="101" y="253" type="line"/>
      <point x="101" y="404"/>
      <point x="180" y="496"/>
      <point x="302" y="496" type="curve" smooth="yes"/>
      <point x="438" y="496"/>
      <point x="518" y="405"/>
      <point x="518" y="250" type="curve" smooth="yes"/>
      <point x="518" y="95"/>
      <point x="438" y="4"/>
      <point x="302" y="4" type="curve" smooth="yes"/>
      <point x="181" y="4"/>
      <point x="101" y="95"/>
      <point x="101" y="246" type="curve"/>
      <point x="92" y="230" type="line"/>
      <point x="92" y="79"/>
      <point x="175" y="-10"/>
      <point x="305" y="-10" type="curve" smooth="yes"/>
      <point x="449" y="-10"/>
      <point x="534" y="87"/>
      <point x="534" y="250" type="curve" smooth="yes"/>
      <point x="534" y="413"/>
      <point x="449" y="510"/>
      <point x="305" y="510" type="curve" smooth="yes"/>
      <point x="176" y="510"/>
      <point x="91" y="420"/>
    </contour>
  </outline>
</glyph>
<glyph name="gbreve" format="2">
  <advance width="496"/>
  <unicode hex="011F"/>
  <outline>
    <contour>
      <point x="379" y="470" type="curve"/>
      <point x="392" y="465" type="line"/>
      <point x="392" y="533"/>
      <point x="429" y="578"/>
      <point x="496" y="578" type="curve"/>
      <point x="491" y="592" type="line"/>
      <point x="421" y="592"/>
      <point x="379" y="544"/>
    </contour>
    <component base="gbase" xOffset="-15"/>
    <component base="breve" xOffset="6"/>
  </outline>
</glyph>
<glyph name="iogonek" format="2">
  <advance width="186"/>
  <unicode hex="012F"/>
  <anchor x="93" y="632" name="top"/>
  <anchor x="101" y="0" name="ogonek"/>
  <anchor x="93" y="0" name="bottom"/>
  <anchor x="101" y="0" name="bottomC"/>
  <outline>
    <contour>
      <point x="89" y="5" type="line"/>
      <point x="29" y="-45"/>
      <point x="2" y="-74"/>
      <point x="2" y="-120" type="curve" smooth="yes"/>
      <point x="2" y="-172"/>
      <point x="43" y="-202"/>
      <point x="87" y="-202" type="curve" smooth="yes"/>
      <point x="117" y="-202"/>
      <point x="133" y="-198"/>
      <point x="151" y="-180" type="curve"/>
      <point x="145" y="-167" type="line"/>
      <point x="128" y="-183"/>
      <point x="116" y="-188"/>
      <point x="87" y="-188" type="curve" smooth="yes"/>
      <point x="51" y="-188"/>
      <point x="17" y="-163"/>
      <point x="17" y="-120" type="curve" smooth="yes"/>
      <point x="17" y="-77"/>
      <point x="43" y="-50"/>
      <point x="101" y="0" type="curve"/>
    </contour>
    <component base="i"/>
  </outline>
</glyph>
<glyph name="Lslash" format="2">
  <advance width="554"/>
  <unicode hex="0141"/>
  <anchor x="476" y="335" name="center"/>
  <anchor x="342" y="0" name="bottom"/>
  <anchor x="118" y="660" name="top"/>
  <anchor x="342" y="0" name="bottomC"/>
  <anchor x="272" y="700" name="topright"/>
  <anchor x="542" y="0" name="ogonek"/>
  <outline>
    <contour>
      <point x="9" y="232" type="line"/>
      <point x="9" y="212" type="line"/>
      <point x="334" y="419" type="line"/>
      <point x="334" y="439" type="line"/>
    </contour>
    <component base="L" xOffset="11"/>
  </outline>
</glyph>
<glyph name="lslash" format="2">
  <advance width="278"/>
  <unicode hex="0142"/>
  <anchor x="246" y="360" name="center"/>
  <anchor x="209" y="0" name="bottom"/>
  <anchor x="119" y="730" name="top"/>
  <anchor x="177" y="0" name="bottomC"/>
  <anchor x="241" y="730" name="topright"/>
  <anchor x="251" y="0" name="ogonek"/>
  <outline>
    <contour>
      <point x="118" y="359" type="line"/>
      <point x="14" y="284" type="line"/>
      <point x="14" y="267" type="line"/>
      <point x="120" y="343" type="line"/>
      <point x="252" y="438" type="line"/>
      <point x="252" y="455" type="line"/>
    </contour>
    <component base="l" xOffset="30"/>
  </outline>
</glyph>
<glyph name="uni0162" format="2">
  <advance width="544"/>
  <unicode hex="0162"/>
  <anchor x="272" y="-210" name="bottom"/>
  <anchor x="272" y="660" name="top"/>
  <anchor x="304" y="-197" name="ogonek"/>
  <anchor x="272" y="371" name="center"/>
  <anchor x="263" y="-197" name="bottomC"/>
  <outline>
    <contour>
      <point x="348" y="-117" type="curve" smooth="yes"/>
      <point x="348" y="-160"/>
      <point x="319" y="-189"/>
      <point x="274" y="-189" type="curve" smooth="yes"/>
      <point x="233" y="-189"/>
      <point x="211" y="-174"/>
      <point x="190" y="-148" type="curve"/>
      <point x="181" y="-158" type="line"/>
      <point x="201" y="-184"/>
      <point x="227" y="-202"/>
      <point x="274" y="-202" type="curve" smooth="yes"/>
      <point x="328" y="-202"/>
      <point x="363" y="-168"/>
      <point x="363" y="-117" type="curve" smooth="yes"/>
      <point x="363" y="-65"/>
      <point x="336" y="-32"/>
      <point x="279" y="3" type="curve"/>
      <point x="264" y="0" type="line"/>
      <point x="321" y="-36"/>
      <point x="348" y="-68"/>
    </contour>
    <component base="T"/>
  </outline>
</glyph>
<glyph name="longs" format="2">
  <advance width="209"/>
  <unicode hex="017F"/>
  <anchor x="168" y="730" name="top"/>
  <anchor x="97" y="0" name="ogonek"/>
  <anchor x="89" y="0" name="bottom"/>
  <anchor x="97" y="0" name="bottomC"/>
  <outline>
    <contour>
      <point x="97" y="0" type="line"/>
      <point x="97" y="592" type="line" smooth="yes"/>
      <point x="97" y="678"/>
      <point x="129" y="721"/>
      <point x="190" y="721" type="curve" smooth="yes"/>
      <point x="221" y="721"/>
      <point x="232" y="715"/>
      <point x="249" y="698" type="curve"/>
      <point x="255" y="710" type="line"/>
      <point x="239" y="724"/>
      <point x="226" y="735"/>
      <point x="190" y="735" type="curve" smooth="yes"/>
      <point x="121" y="735"/>
      <point x="81" y="687"/>
      <point x="81" y="592" type="curve" smooth="yes"/>
      <point x="81" y="0" type="line"/>
    </contour>
  </outline>
</glyph>
<glyph name="florin" format="2">
  <advance width="399"/>
  <unicode hex="0192"/>
  <outline>
    <contour>
      <point x="217" y="593" type="curve" smooth="yes"/>
      <point x="127" y="14" type="line" smooth="yes"/>
      <point x="114" y="-71"/>
      <point x="75" y="-114"/>
      <point x="11" y="-114" type="curve" smooth="yes"/>
      <point x="-14" y="-114"/>
      <point x="-31" y="-110"/>
      <point x="-46" y="-100" type="curve"/>
      <point x="-52" y="-111" type="line"/>
      <point x="-30" y="-124"/>
      <point x="-15" y="-128"/>
      <point x="11" y="-128" type="curve" smooth="yes"/>
      <point x="84" y="-128"/>
      <point x="129" y="-80"/>
      <point x="144" y="14" type="curve" smooth="yes"/>
      <point x="234" y="594" type="line" smooth="yes"/>
      <point x="247" y="680"/>
      <point x="286" y="721"/>
      <point x="354" y="721" type="curve" smooth="yes"/>
      <point x="373" y="721"/>
      <point x="389" y="717"/>
      <point x="406" y="708" type="curve"/>
      <point x="408" y="722" type="line"/>
      <point x="388" y="732"/>
      <point x="372" y="735"/>
      <point x="346" y="735" type="curve" smooth="yes"/>
      <point x="273" y="735"/>
      <point x="232" y="690"/>
    </contour>
    <contour>
      <point x="27" y="400" type="line"/>
      <point x="27" y="386" type="line"/>
      <point x="373" y="386" type="line"/>
      <point x="373" y="400" type="line"/>
    </contour>
  </outline>
</glyph>
<glyph name="ring" format="2">
  <advance width="550"/>
  <unicode hex="02DA"/>
  <anchor x="253" y="500" name="_top"/>
  <outline>
    <contour>
      <point x="169" y="655" type="curve" smooth="yes"/>
      <point x="169" y="610"/>
      <point x="204" y="575"/>
      <point x="251" y="575" type="curve" smooth="yes"/>
      <point x="298" y="575"/>
      <point x="333" y="610"/>
      <point x="333" y="655" type="curve" smooth="yes"/>
      <point x="333" y="700"/>
      <point x="298" y="735"/>
      <point x="251" y="735" type="curve" smooth="yes"/>
      <point x="204" y="735"/>
      <point x="169" y="700"/>
    </contour>
    <contour>
      <point x="317" y="655" type="curve" smooth="yes"/>
      <point x="317" y="618"/>
      <point x="288" y="589"/>
      <point x="251" y="589" type="curve" smooth="yes"/>
      <point x="214" y="589"/>
      <point x="185" y="618"/>
      <point x="185" y="655" type="curve" smooth="yes"/>
      <point x="185" y="692"/>
      <point x="214" y="721"/>
      <point x="251" y="721" type="curve" smooth="yes"/>
      <point x="288" y="721"/>
      <point x="317" y="692"/>
    </contour>
  </outline>
</glyph>
<glyph name="ogonek" format="2">
  <advance width="550"/>
  <unicode hex="02DB"/>
  <anchor x="345" y="8" name="_ogonek"/>
  <outline>
    <contour>
      <point x="322" y="8" type="line"/>
      <point x="222" y="-32"/>
      <point x="189" y="-72"/>
      <point x="189" y="-124" type="curve" smooth="yes"/>
      <point x="189" y="-176"/>
      <point x="229" y="-202"/>
      <point x="277" y="-202" type="curve" smooth="yes"/>
      <point x="318" y="-202"/>
      <point x="338" y="-192"/>
      <point x="354" y="-181" type="curve"/>
      <point x="348" y="-168" type="line"/>
      <point x="334" y="-179"/>
      <point x="314" y="-188"/>
      <point x="277" y="-188" type="curve" smooth="yes"/>
      <point x="237" y="-188"/>
      <point x="204" y="-167"/>
      <point x="204" y="-124" type="curve" smooth="yes"/>
      <point x="204" y="-75"/>
      <point x="237" y="-38"/>
      <point x="345" y="8" type="curve"/>
    </contour>
  </outline>
</glyph>
<glyph name="commaaccent" format="2">
  <unicode hex="0326"/>
  <anchor x="0" y="0" name="_bottom"/>
  <outline>
    <contour>
      <point x="-11" y="-68" type="line"/>
      <point x="-61" y="-229" type="line"/>
      <point x="-48" y="-229" type="line"/>
      <point x="7" y="-68" type="line"/>
    </contour>
  </outline>
</glyph>
<glyph name="daggerdbl" format="2">
  <advance width="509"/>
  <unicode hex="2021"/>
  <outline>
    <contour>
      <point x="247" y="660" type="line"/>
      <point x="247" y="-100" type="line"/>
      <point x="263" y="-100" type="line"/>
      <point x="263" y="660" type="line"/>
    </contour>
    <contour>
      <point x="49" y="451" type="line"/>
      <point x="49" y="438" type="line"/>
      <point x="460" y="438" type="line"/>
      <point x="460" y="451" type="line"/>
    </contour>
    <contour>
      <point x="49" y="122" type="line"/>
      <point x="49" y="109" type="line"/>
      <point x="460" y="109" type="line"/>
      <point x="460" y="122" type="line"/>
    </contour>
  </outline>
</glyph>
<glyph name="sevensuperior" format="2">
  <advance width="294"/>
  <unicode hex="2077"/>
  <anchor x="144" y="543" name="_indexring"/>
  <outline>
    <contour>
      <point x="127" y="333" type="line"/>
      <point x="127" y="485"/>
      <point x="187" y="611"/>
      <point x="284" y="716" type="curve"/>
      <point x="284" y="730" type="line"/>
      <point x="6" y="730" type="line"/>
      <point x="6" y="716" type="line"/>
      <point x="272" y="716" type="line"/>
      <point x="268" y="720" type="line"/>
      <point x="168" y="610"/>
      <point x="112" y="479"/>
      <point x="112" y="333" type="curve"/>
    </contour>
  </outline>
</glyph>
<glyph name="uni20BA" format="2">
  <advance width="573"/>
  <unicode hex="20BA"/>
  <outline>
    <contour>
      <point x="523" y="257" type="line"/>
      <point x="523" y="105"/>
      <point x="435" y="14"/>
      <point x="288" y="14" type="curve" smooth="yes"/>
      <point x="169" y="14" type="line"/>
      <point x="169" y="0" type="line"/>
      <point x="297" y="0" type="line" smooth="yes"/>
      <point x="448" y="0"/>
      <point x="538" y="96"/>
      <point x="538" y="257" type="curve"/>
    </contour>
    <contour>
      <point x="161" y="660" type="line"/>
      <point x="161" y="0" type="line"/>
      <point x="177" y="0" type="line"/>
      <point x="177" y="660" type="line"/>
    </contour>
    <contour>
      <point x="44" y="261" type="line"/>
      <point x="44" y="246" type="line"/>
      <point x="404" y="352" type="line"/>
      <point x="404" y="367" type="line"/>
    </contour>
    <contour>
      <point x="44" y="391" type="line"/>
      <point x="44" y="376" type="line"/>
      <point x="404" y="483" type="line"/>
      <point x="404" y="498" type="line"/>
    </contour>
  </outline>
</glyph>
<glyph name="uni2113" format="2">
  <advance width="324"/>
  <unicode hex="2113"/>
  <outline>
    <contour>
      <point x="287" y="8" type="curve"/>
      <point x="286" y="24" type="line"/>
      <point x="270" y="12"/>
      <point x="250" y="6"/>
      <point x="221" y="6" type="curve" smooth="yes"/>
      <point x="157" y="6"/>
      <point x="130" y="35"/>
      <point x="130" y="104" type="curve" smooth="yes"/>
      <point x="130" y="562" type="line" smooth="yes"/>
      <point x="130" y="624"/>
      <point x="152" y="656"/>
      <point x="196" y="656" type="curve" smooth="yes"/>
      <point x="239" y="656"/>
      <point x="261" y="626"/>
      <point x="261" y="567" type="curve" smooth="yes"/>
      <point x="261" y="415"/>
      <point x="171" y="284"/>
      <point x="39" y="231" type="curve"/>
      <point x="39" y="214" type="line"/>
      <point x="183" y="276"/>
      <point x="277" y="415"/>
      <point x="277" y="567" type="curve" smooth="yes"/>
      <point x="277" y="635"/>
      <point x="250" y="670"/>
      <point x="196" y="670" type="curve" smooth="yes"/>
      <point x="142" y="670"/>
      <point x="114" y="634"/>
      <point x="114" y="562" type="curve" smooth="yes"/>
      <point x="114" y="104" type="line" smooth="yes"/>
      <point x="114" y="24"/>
      <point x="145" y="-10"/>
      <point x="217" y="-10" type="curve" smooth="yes"/>
      <point x="250" y="-10"/>
      <point x="271" y="-4"/>
    </contour>
  </outline>
</glyph>
<glyph name="updownarrow" format="2">
  <advance width="750"/>
  <unicode hex="2195"/>
  <outline>
    <contour>
      <point x="382" y="-103" type="line"/>
      <point x="382" y="-65"/>
      <point x="382" y="-14"/>
      <point x="382" y="15" type="curve" smooth="yes"/>
      <point x="382" y="645" type="line" smooth="yes"/>
      <point x="382" y="674"/>
      <point x="382" y="725"/>
      <point x="382" y="763" type="curve"/>
      <point x="374" y="768" type="line"/>
      <point x="366" y="763" type="line"/>
      <point x="366" y="725"/>
      <point x="366" y="674"/>
      <point x="366" y="645" type="curve" smooth="yes"/>
      <point x="366" y="15" type="line" smooth="yes"/>
      <point x="366" y="-14"/>
      <point x="366" y="-65"/>
      <point x="366" y="-103" type="curve"/>
      <point x="374" y="-108" type="line"/>
    </contour>
    <contour>
      <point x="375" y="761" type="curve"/>
      <point x="373" y="761" type="line"/>
      <point x="432" y="663"/>
      <point x="543" y="547"/>
      <point x="676" y="445" type="curve"/>
      <point x="686" y="461" type="line"/>
      <point x="559" y="554"/>
      <point x="472" y="643"/>
      <point x="375" y="778" type="curve"/>
      <point x="373" y="778" type="line"/>
      <point x="276" y="644"/>
      <point x="188" y="554"/>
      <point x="62" y="461" type="curve"/>
      <point x="72" y="445" type="line"/>
      <point x="205" y="547"/>
      <point x="316" y="663"/>
    </contour>
    <contour>
      <point x="62" y="199" type="line"/>
      <point x="188" y="106"/>
      <point x="276" y="16"/>
      <point x="373" y="-118" type="curve"/>
      <point x="375" y="-118" type="line"/>
      <point x="472" y="17"/>
      <point x="559" y="106"/>
      <point x="686" y="199" type="curve"/>
      <point x="676" y="215" type="line"/>
      <point x="543" y="113"/>
      <point x="432" y="-3"/>
      <point x="373" y="-101" type="curve"/>
      <point x="375" y="-101" type="line"/>
      <point x="316" y="-3"/>
      <point x="205" y="113"/>
      <point x="72" y="215" type="curve"/>
    </contour>
  </outline>
</glyph>
<glyph name="nearrow" format="2">
  <advance width="750"/>
  <unicode hex="2197"/>
  <outline>
    <contour>
      <point x="499" y="428" type="line" smooth="yes"/>
      <point x="544" y="474"/>
      <point x="557" y="486"/>
      <point x="602" y="534" type="curve"/>
      <point x="601" y="542" type="line"/>
      <point x="593" y="543" type="line"/>
      <point x="567" y="519"/>
      <point x="511" y="464"/>
      <point x="487" y="440" type="curve" smooth="yes"/>
      <point x="151" y="104" type="line"/>
      <point x="163" y="92" type="line"/>
    </contour>
    <contour>
      <point x="595" y="105" type="line"/>
      <point x="584" y="260"/>
      <point x="586" y="384"/>
      <point x="610" y="548" type="curve"/>
      <point x="607" y="551" type="line"/>
      <point x="444" y="527"/>
      <point x="318" y="525"/>
      <point x="164" y="536" type="curve"/>
      <point x="163" y="517" type="line"/>
      <point x="330" y="509"/>
      <point x="486" y="512"/>
      <point x="597" y="537" type="curve"/>
      <point x="596" y="538" type="line"/>
      <point x="571" y="427"/>
      <point x="568" y="271"/>
      <point x="576" y="104" type="curve"/>
    </contour>
  </outline>
</glyph>
<glyph name="summation" format="2">
  <advance width="570"/>
  <unicode hex="2211"/>
  <outline>
    <contour>
      <point x="378" y="276" type="line"/>
      <point x="31" y="-114" type="line"/>
      <point x="42" y="-123" type="line"/>
      <point x="398" y="275" type="line"/>
      <point x="398" y="276" type="line"/>
    </contour>
    <contour>
      <point x="31" y="-114" type="line"/>
      <point x="31" y="-128" type="line"/>
      <point x="527" y="-128" type="line"/>
      <point x="527" y="-114" type="line"/>
    </contour>
    <contour>
      <point x="31" y="646" type="line"/>
      <point x="378" y="276" type="line"/>
      <point x="398" y="276" type="line"/>
      <point x="398" y="277" type="line"/>
      <point x="44" y="655" type="line"/>
    </contour>
    <contour>
      <point x="31" y="660" type="line"/>
      <point x="31" y="646" type="line"/>
      <point x="527" y="646" type="line"/>
      <point x="527" y="660" type="line"/>
    </contour>
  </outline>
</glyph>
<glyph name="whiteSmallSquare" format="2">
  <advance width="600"/>
  <unicode hex="25AB"/>
  <outline>
    <contour>
      <point x="505" y="45" type="line"/>
      <point x="505" y="455" type="line"/>
      <point x="95" y="455" type="line"/>
      <point x="95" y="45" type="line"/>
    </contour>
    <contour>
      <point x="111" y="440" type="line"/>
      <point x="489" y="440" type="line"/>
      <point x="489" y="60" type="line"/>
      <point x="111" y="60" type="line"/>
    </contour>
  </outline>
</glyph>
<glyph name="lozenge" format="2">
  <advance width="474"/>
  <unicode hex="25CA"/>
  <outline>
    <contour>
      <point x="230" y="660" type="line"/>
      <point x="416" y="330" type="line"/>
      <point x="434" y="330" type="line"/>
      <point x="248" y="660" type="line"/>
    </contour>
    <contour>
      <point x="41" y="330" type="line"/>
      <point x="225" y="0" type="line"/>
      <point x="243" y="0" type="line"/>
      <point x="59" y="330" type="line"/>
    </contour>
    <contour>
      <point x="416" y="330" type="line"/>
      <point x="230" y="0" type="line"/>
      <point x="248" y="0" type="line"/>
      <point x="434" y="330" type="line"/>
    </contour>
    <contour>
      <point x="225" y="660" type="line"/>
      <point x="41" y="330" type="line"/>
      <point x="59" y="330" type="line"/>
      <point x="243" y="660" type="line"/>
    </contour>
  </outline>
</glyph>
<glyph name="L.swsh" format="2">
  <advance width="583"/>
  <anchor x="465" y="335" name="center"/>
  <anchor x="327" y="0" name="bottom"/>
  <anchor x="107" y="660" name="top"/>
  <anchor x="309" y="0" name="bottomC"/>
  <anchor x="261" y="700" name="topright"/>
  <anchor x="400" y="0" name="ogonek"/>
  <outline>
    <contour>
      <point x="400" y="0" type="line" smooth="yes"/>
      <point x="512" y="0"/>
      <point x="573" y="52"/>
      <point x="573" y="158" type="curve" smooth="yes"/>
      <point x="573" y="244"/>
      <point x="524" y="294"/>
      <point x="451" y="310" type="curve"/>
      <point x="440" y="299" type="line"/>
      <point x="512" y="283"/>
      <point x="557" y="236"/>
      <point x="557" y="158" type="curve" smooth="yes"/>
      <point x="557" y="58"/>
      <point x="500" y="14"/>
      <point x="395" y="14" type="curve" smooth="yes"/>
      <point x="260" y="14" type="line"/>
      <point x="260" y="0" type="line"/>
    </contour>
    <contour>
      <point x="361" y="0" type="line"/>
      <point x="361" y="14" type="line"/>
      <point x="105" y="14" type="line"/>
      <point x="105" y="0" type="line"/>
    </contour>
    <contour>
      <point x="115" y="0" type="line"/>
      <point x="115" y="660" type="line"/>
      <point x="99" y="660" type="line"/>
      <point x="99" y="0" type="line"/>
    </contour>
  </outline>
</glyph>
<glyph name="Lslash.swsh" format="2">
  <advance width="594"/>
  <anchor x="476" y="335" name="center"/>
  <anchor x="338" y="0" name="bottom"/>
  <anchor x="118" y="660" name="top"/>
  <anchor x="338" y="0" name="bottomC"/>
  <anchor x="272" y="700" name="topright"/>
  <anchor x="411" y="0" name="ogonek"/>
  <outline>
    <contour>
      <point x="9" y="232" type="line"/>
      <point x="9" y="212" type="line"/>
      <point x="334" y="419" type="line"/>
      <point x="334" y="439" type="line"/>
    </contour>
    <component base="L.swsh" xOffset="11"/>
  </outline>
</glyph>
<glyph name="N.swsh" format="2">
  <advance width="694"/>
  <anchor x="353" y="660" name="top"/>
  <anchor x="595" y="0" name="ogonek"/>
  <anchor x="347" y="0" name="bottom"/>
  <anchor x="595" y="0" name="bottomC"/>
  <outline>
    <contour>
      <point x="115" y="0" type="line"/>
      <point x="115" y="587" type="line"/>
      <point x="114" y="644" type="line"/>
      <point x="114" y="644" type="line"/>
      <point x="140" y="605" type="line"/>
      <point x="573" y="0" type="line"/>
      <point x="595" y="0" type="line"/>
      <point x="595" y="461" type="line"/>
      <point x="579" y="461" type="line"/>
      <point x="579" y="73" type="line"/>
      <point x="580" y="16" type="line"/>
      <point x="580" y="16" type="line"/>
      <point x="554" y="55" type="line"/>
      <point x="121" y="660" type="line"/>
      <point x="99" y="660" type="line"/>
      <point x="99" y="0" type="line"/>
    </contour>
    <contour>
      <point x="595" y="423" type="line"/>
      <point x="595" y="562" type="line" smooth="yes"/>
      <point x="595" y="669"/>
      <point x="645" y="721"/>
      <point x="729" y="721" type="curve" smooth="yes"/>
      <point x="805" y="721"/>
      <point x="850" y="687"/>
      <point x="860" y="612" type="curve"/>
      <point x="873" y="619" type="line"/>
      <point x="863" y="698"/>
      <point x="813" y="735"/>
      <point x="729" y="735" type="curve" smooth="yes"/>
      <point x="635" y="735"/>
      <point x="579" y="677"/>
      <point x="579" y="559" type="curve" smooth="yes"/>
      <point x="579" y="423" type="line"/>
    </contour>
  </outline>
</glyph>
<glyph name="R.swsh" format="2">
  <advance width="825"/>
  <anchor x="507" y="660" name="top"/>
  <anchor x="790" y="0" name="ogonek"/>
  <anchor x="560" y="0" name="bottom"/>
  <anchor x="790" y="0" name="bottomC"/>
  <outline>
    <contour>
      <point x="552" y="300" type="line" smooth="yes"/>
      <point x="681" y="300"/>
      <point x="761" y="368"/>
      <point x="761" y="480" type="curve" smooth="yes"/>
      <point x="761" y="592"/>
      <point x="681" y="660"/>
      <point x="552" y="660" type="curve" smooth="yes"/>
      <point x="321" y="660" type="line"/>
      <point x="321" y="646" type="line"/>
      <point x="552" y="646" type="line" smooth="yes"/>
      <point x="673" y="646"/>
      <point x="745" y="584"/>
      <point x="745" y="480" type="curve" smooth="yes"/>
      <point x="745" y="376"/>
      <point x="673" y="314"/>
      <point x="552" y="314" type="curve" smooth="yes"/>
      <point x="321" y="314" type="line"/>
      <point x="321" y="300" type="line"/>
    </contour>
    <contour>
      <point x="329" y="46" type="curve" smooth="yes"/>
      <point x="329" y="202" type="line"/>
      <point x="313" y="202" type="line"/>
      <point x="313" y="43" type="line" smooth="yes"/>
      <point x="313" y="-44"/>
      <point x="263" y="-96"/>
      <point x="179" y="-96" type="curve" smooth="yes"/>
      <point x="97" y="-96"/>
      <point x="48" y="-48"/>
      <point x="48" y="33" type="curve"/>
      <point x="35" y="26" type="line"/>
      <point x="35" y="-59"/>
      <point x="89" y="-110"/>
      <point x="179" y="-110" type="curve" smooth="yes"/>
      <point x="273" y="-110"/>
      <point x="329" y="-52"/>
    </contour>
    <contour>
      <point x="329" y="163" type="line"/>
      <point x="329" y="660" type="line"/>
      <point x="313" y="660" type="line"/>
      <point x="313" y="163" type="line"/>
    </contour>
    <contour>
      <point x="790" y="0" type="line"/>
      <point x="583" y="314" type="line"/>
      <point x="570" y="304" type="line"/>
      <point x="772" y="0" type="line"/>
    </contour>
    <component base="__swash_topleft" xOffset="-24"/>
  </outline>
</glyph>
<glyph name="T.swsh" format="2">
  <advance width="620"/>
  <anchor x="352" y="0" name="bottom"/>
  <anchor x="348" y="660" name="top"/>
  <anchor x="356" y="0" name="ogonek"/>
  <anchor x="348" y="371" name="center"/>
  <anchor x="356" y="0" name="bottomC"/>
  <outline>
    <contour>
      <point x="143" y="361" type="line"/>
      <point x="71" y="377"/>
      <point x="26" y="424"/>
      <point x="26" y="502" type="curve" smooth="yes"/>
      <point x="26" y="602"/>
      <point x="83" y="646"/>
      <point x="188" y="646" type="curve" smooth="yes"/>
      <point x="333" y="646" type="line"/>
      <point x="333" y="660" type="line"/>
      <point x="183" y="660" type="line" smooth="yes"/>
      <point x="71" y="660"/>
      <point x="10" y="608"/>
      <point x="10" y="502" type="curve" smooth="yes"/>
      <point x="10" y="416"/>
      <point x="59" y="366"/>
      <point x="132" y="350" type="curve"/>
    </contour>
    <contour>
      <point x="356" y="0" type="line"/>
      <point x="356" y="653" type="line"/>
      <point x="340" y="653" type="line"/>
      <point x="340" y="0" type="line"/>
    </contour>
    <contour>
      <point x="609" y="646" type="line"/>
      <point x="609" y="660" type="line"/>
      <point x="187" y="660" type="line"/>
      <point x="187" y="646" type="line"/>
    </contour>
  </outline>
</glyph>
<glyph name="__swash_topleft" format="2">
  <advance width="507"/>
  <outline>
    <contour>
      <point x="167" y="361" type="line"/>
      <point x="95" y="377"/>
      <point x="50" y="424"/>
      <point x="50" y="502" type="curve" smooth="yes"/>
      <point x="50" y="602"/>
      <point x="107" y="646"/>
      <point x="212" y="646" type="curve" smooth="yes"/>
      <point x="457" y="646" type="line"/>
      <point x="457" y="660" type="line"/>
      <point x="207" y="660" type="line" smooth="yes"/>
      <point x="95" y="660"/>
      <point x="34" y="608"/>
      <point x="34" y="502" type="curve" smooth="yes"/>
      <point x="34" y="416"/>
      <point x="83" y="366"/>
      <point x="156" y="350" type="curve"/>
    </contour>
  </outline>
</glyph>
<glyph name="ae.sc" format="2">
  <advance width="769"/>
  <anchor x="379" y="560" name="top"/>
  <anchor x="379" y="0" name="bottom"/>
  <outline>
    <contour>
      <point x="346" y="560" type="line"/>
      <point x="11" y="0" type="line"/>
      <point x="30" y="0" type="line"/>
      <point x="365" y="560" type="line"/>
    </contour>
    <contour>
      <point x="157" y="228" type="line"/>
      <point x="149" y="214" type="line"/>
      <point x="377" y="214" type="line"/>
      <point x="377" y="228" type="line"/>
    </contour>
    <contour>
      <point x="380" y="14" type="line"/>
      <point x="380" y="0" type="line"/>
      <point x="739" y="0" type="line"/>
      <point x="739" y="14" type="line"/>
    </contour>
    <contour>
      <point x="371" y="560" type="line"/>
      <point x="371" y="0" type="line"/>
      <point x="387" y="0" type="line"/>
      <point x="387" y="560" type="line"/>
    </contour>
    <contour>
      <point x="380" y="291" type="line"/>
      <point x="380" y="277" type="line"/>
      <point x="657" y="277" type="line"/>
      <point x="657" y="291" type="line"/>
    </contour>
    <contour>
      <point x="358" y="560" type="line"/>
      <point x="348" y="546" type="line"/>
      <point x="377" y="546" type="line"/>
      <point x="380" y="546" type="line"/>
      <point x="725" y="546" type="line"/>
      <point x="725" y="560" type="line"/>
    </contour>
  </outline>
</glyph>
<glyph name="ampersand.sc" format="2">
  <advance width="511"/>
  <outline>
    <contour>
      <point x="514" y="4" type="line"/>
      <point x="460" y="4"/>
      <point x="419" y="44"/>
      <point x="282" y="217" type="curve" smooth="yes"/>
      <point x="154" y="379"/>
      <point x="136" y="398"/>
      <point x="136" y="452" type="curve" smooth="yes"/>
      <point x="136" y="512"/>
      <point x="179" y="551"/>
      <point x="244" y="551" type="curve" smooth="yes"/>
      <point x="307" y="551"/>
      <point x="347" y="517"/>
      <point x="347" y="464" type="curve" smooth="yes"/>
      <point x="347" y="409"/>
      <point x="320" y="369"/>
      <point x="204" y="305" type="curve"/>
      <point x="113" y="254"/>
      <point x="42" y="210"/>
      <point x="42" y="118" type="curve" smooth="yes"/>
      <point x="42" y="38"/>
      <point x="115" y="-8"/>
      <point x="209" y="-8" type="curve" smooth="yes"/>
      <point x="293" y="-8"/>
      <point x="350" y="25"/>
      <point x="389" y="76" type="curve"/>
      <point x="436" y="139"/>
      <point x="453" y="228"/>
      <point x="453" y="310" type="curve"/>
      <point x="439" y="310" type="line"/>
      <point x="439" y="224"/>
      <point x="420" y="143"/>
      <point x="378" y="87" type="curve"/>
      <point x="341" y="36"/>
      <point x="285" y="5"/>
      <point x="207" y="5" type="curve" smooth="yes"/>
      <point x="124" y="5"/>
      <point x="58" y="47"/>
      <point x="58" y="119" type="curve" smooth="yes"/>
      <point x="58" y="206"/>
      <point x="126" y="245"/>
      <point x="214" y="293" type="curve"/>
      <point x="334" y="359"/>
      <point x="363" y="404"/>
      <point x="363" y="464" type="curve" smooth="yes"/>
      <point x="363" y="526"/>
      <point x="316" y="565"/>
      <point x="244" y="565" type="curve" smooth="yes"/>
      <point x="169" y="565"/>
      <point x="121" y="520"/>
      <point x="121" y="452" type="curve" smooth="yes"/>
      <point x="121" y="391"/>
      <point x="154" y="358"/>
      <point x="273" y="207" type="curve" smooth="yes"/>
      <point x="405" y="39"/>
      <point x="449" y="-8"/>
      <point x="512" y="-8" type="curve"/>
    </contour>
  </outline>
</glyph>
<glyph name="blackCircle.case" format="2">
  <advance width="660"/>
  <outline>
    <contour>
      <point x="585" y="330" type="curve" smooth="yes"/>
      <point x="585" y="476"/>
      <point x="476" y="585"/>
      <point x="330" y="585" type="curve" smooth="yes"/>
      <point x="184" y="585"/>
      <point x="75" y="476"/>
      <point x="75" y="330" type="curve" smooth="yes"/>
      <point x="75" y="184"/>
      <point x="184" y="75"/>
      <point x="330" y="75" type="curve" smooth="yes"/>
      <point x="476" y="75"/>
      <point x="585" y="184"/>
    </contour>
  </outline>
</glyph>
<glyph name="eight.sc" format="2">
  <advance width="503"/>
  <outline>
    <contour>
      <point x="451" y="144" type="curve" smooth="yes"/>
      <point x="451" y="220"/>
      <point x="392" y="279"/>
      <point x="301" y="294" type="curve"/>
      <point x="301" y="295" type="line"/>
      <point x="379" y="311"/>
      <point x="426" y="360"/>
      <point x="426" y="430" type="curve" smooth="yes"/>
      <point x="426" y="514"/>
      <point x="357" y="568"/>
      <point x="251" y="568" type="curve" smooth="yes"/>
      <point x="145" y="568"/>
      <point x="77" y="514"/>
      <point x="77" y="430" type="curve" smooth="yes"/>
      <point x="77" y="360"/>
      <point x="124" y="311"/>
      <point x="202" y="295" type="curve"/>
      <point x="202" y="294" type="line"/>
      <point x="112" y="280"/>
      <point x="52" y="221"/>
      <point x="52" y="144" type="curve" smooth="yes"/>
      <point x="52" y="54"/>
      <point x="134" y="-8"/>
      <point x="251" y="-8" type="curve" smooth="yes"/>
      <point x="369" y="-8"/>
      <point x="451" y="54"/>
    </contour>
    <contour>
      <point x="68" y="144" type="curve" smooth="yes"/>
      <point x="68" y="227"/>
      <point x="143" y="286"/>
      <point x="251" y="286" type="curve" smooth="yes"/>
      <point x="360" y="286"/>
      <point x="435" y="227"/>
      <point x="435" y="144" type="curve" smooth="yes"/>
      <point x="435" y="62"/>
      <point x="360" y="6"/>
      <point x="251" y="6" type="curve" smooth="yes"/>
      <point x="143" y="6"/>
      <point x="68" y="62"/>
    </contour>
    <contour>
      <point x="92" y="430" type="curve" smooth="yes"/>
      <point x="92" y="506"/>
      <point x="155" y="554"/>
      <point x="251" y="554" type="curve" smooth="yes"/>
      <point x="347" y="554"/>
      <point x="410" y="506"/>
      <point x="410" y="430" type="curve" smooth="yes"/>
      <point x="410" y="354"/>
      <point x="347" y="302"/>
      <point x="251" y="302" type="curve" smooth="yes"/>
      <point x="155" y="302"/>
      <point x="92" y="354"/>
    </contour>
  </outline>
</glyph>
<glyph name="endashsuperior" format="2">
  <advance width="384"/>
  <outline>
    <contour>
      <point x="43" y="540" type="line"/>
      <point x="43" y="526" type="line"/>
      <point x="341" y="526" type="line"/>
      <point x="341" y="540" type="line"/>
    </contour>
  </outline>
</glyph>
<glyph name="g_idieresis" format="2">
  <advance width="682"/>
  <anchor x="589" y="500" name="top"/>
  <anchor x="597" y="0" name="ogonek"/>
  <anchor x="589" y="0" name="bottom"/>
  <anchor x="597" y="0" name="bottomC"/>
  <outline>
    <contour>
      <point x="379" y="470" type="curve"/>
      <point x="392" y="465" type="line"/>
      <point x="392" y="533"/>
      <point x="429" y="578"/>
      <point x="496" y="578" type="curve"/>
      <point x="491" y="592" type="line"/>
      <point x="421" y="592"/>
      <point x="379" y="544"/>
    </contour>
    <component base="gbase" xOffset="-15"/>
    <component base="idieresis" xOffset="496"/>
  </outline>
</glyph>
<glyph name="g_j.liga" format="2">
  <advance width="711"/>
  <outline>
    <contour>
      <point x="379" y="470" type="curve"/>
      <point x="392" y="465" type="line"/>
      <point x="392" y="533"/>
      <point x="429" y="578"/>
      <point x="496" y="578" type="curve"/>
      <point x="491" y="592" type="line"/>
      <point x="421" y="592"/>
      <point x="379" y="544"/>
    </contour>
    <contour>
      <point x="65" y="114" type="curve" smooth="yes"/>
      <point x="65" y="63"/>
      <point x="116" y="23"/>
      <point x="196" y="23" type="curve" smooth="yes"/>
      <point x="325" y="23" type="line" smooth="yes"/>
      <point x="417" y="23"/>
      <point x="476" y="-16"/>
      <point x="476" y="-75" type="curve" smooth="yes"/>
      <point x="476" y="-150"/>
      <point x="384" y="-201"/>
      <point x="266" y="-201" type="curve" smooth="yes"/>
      <point x="132" y="-201"/>
      <point x="50" y="-151"/>
      <point x="50" y="-79" type="curve" smooth="yes"/>
      <point x="50" y="-19"/>
      <point x="111" y="23"/>
      <point x="197" y="23" type="curve"/>
      <point x="184" y="32" type="line"/>
      <point x="96" y="32"/>
      <point x="34" y="-15"/>
      <point x="34" y="-81" type="curve" smooth="yes"/>
      <point x="34" y="-161"/>
      <point x="121" y="-215"/>
      <point x="264" y="-215" type="curve" smooth="yes"/>
      <point x="400" y="-215"/>
      <point x="492" y="-157"/>
      <point x="492" y="-73" type="curve" smooth="yes"/>
      <point x="492" y="-7"/>
      <point x="428" y="37"/>
      <point x="326" y="37" type="curve" smooth="yes"/>
      <point x="203" y="37" type="line" smooth="yes"/>
      <point x="123" y="37"/>
      <point x="81" y="71"/>
      <point x="81" y="116" type="curve" smooth="yes"/>
      <point x="81" y="164"/>
      <point x="139" y="202"/>
      <point x="215" y="202" type="curve"/>
      <point x="199" y="212" type="line"/>
      <point x="125" y="212"/>
      <point x="65" y="174"/>
    </contour>
    <contour>
      <point x="60" y="353" type="curve" smooth="yes"/>
      <point x="60" y="258"/>
      <point x="139" y="196"/>
      <point x="258" y="196" type="curve" smooth="yes"/>
      <point x="376" y="196"/>
      <point x="454" y="258"/>
      <point x="454" y="353" type="curve" smooth="yes"/>
      <point x="454" y="448"/>
      <point x="376" y="510"/>
      <point x="258" y="510" type="curve" smooth="yes"/>
      <point x="139" y="510"/>
      <point x="60" y="448"/>
    </contour>
    <contour>
      <point x="438" y="353" type="curve" smooth="yes"/>
      <point x="438" y="267"/>
      <point x="367" y="210"/>
      <point x="258" y="210" type="curve" smooth="yes"/>
      <point x="148" y="210"/>
      <point x="76" y="267"/>
      <point x="76" y="353" type="curve" smooth="yes"/>
      <point x="76" y="439"/>
      <point x="148" y="496"/>
      <point x="258" y="496" type="curve" smooth="yes"/>
      <point x="367" y="496"/>
      <point x="438" y="439"/>
    </contour>
    <contour>
      <point x="610" y="500" type="line"/>
      <point x="610" y="-94" type="line" smooth="yes"/>
      <point x="610" y="-169"/>
      <point x="591" y="-201"/>
      <point x="548" y="-201" type="curve" smooth="yes"/>
      <point x="521" y="-201"/>
      <point x="511" y="-197"/>
      <point x="499" y="-186" type="curve"/>
      <point x="494" y="-200" type="line"/>
      <point x="511" y="-213"/>
      <point x="525" y="-215"/>
      <point x="548" y="-215" type="curve" smooth="yes"/>
      <point x="602" y="-215"/>
      <point x="626" y="-179"/>
      <point x="626" y="-94" type="curve" smooth="yes"/>
      <point x="626" y="500" type="line"/>
    </contour>
    <contour>
      <point x="596" y="620" type="curve" smooth="yes"/>
      <point x="596" y="607"/>
      <point x="605" y="598"/>
      <point x="618" y="598" type="curve" smooth="yes"/>
      <point x="631" y="598"/>
      <point x="640" y="607"/>
      <point x="640" y="620" type="curve" smooth="yes"/>
      <point x="640" y="633"/>
      <point x="631" y="642"/>
      <point x="618" y="642" type="curve" smooth="yes"/>
      <point x="605" y="642"/>
      <point x="596" y="633"/>
    </contour>
  </outline>
</glyph>
<glyph name="germandbls.sc" format="2">
  <advance width="570"/>
  <anchor x="309" y="560" name="top"/>
  <anchor x="402" y="0" name="ogonek"/>
  <anchor x="309" y="0" name="bottom"/>
  <anchor x="357" y="0" name="bottomC"/>
  <outline>
    <contour>
      <point x="106" y="0" type="line"/>
      <point x="106" y="374" type="line" smooth="yes"/>
      <point x="106" y="476"/>
      <point x="171" y="546"/>
      <point x="277" y="546" type="curve" smooth="yes"/>
      <point x="479" y="546" type="line"/>
      <point x="267" y="292" type="line"/>
      <point x="280" y="286" type="line"/>
      <point x="497" y="545" type="line"/>
      <point x="497" y="560" type="line"/>
      <point x="277" y="560" type="line" smooth="yes"/>
      <point x="160" y="560"/>
      <point x="90" y="486"/>
      <point x="90" y="374" type="curve" smooth="yes"/>
      <point x="90" y="0" type="line"/>
    </contour>
    <contour>
      <point x="528" y="147" type="curve" smooth="yes"/>
      <point x="528" y="244"/>
      <point x="469" y="292"/>
      <point x="368" y="292" type="curve" smooth="yes"/>
      <point x="267" y="292" type="line"/>
      <point x="267" y="278" type="line"/>
      <point x="368" y="278" type="line" smooth="yes"/>
      <point x="459" y="278"/>
      <point x="512" y="235"/>
      <point x="512" y="147" type="curve" smooth="yes"/>
      <point x="512" y="61"/>
      <point x="450" y="10"/>
      <point x="361" y="10" type="curve" smooth="yes"/>
      <point x="305" y="10"/>
      <point x="264" y="29"/>
      <point x="238" y="58" type="curve"/>
      <point x="229" y="47" type="line"/>
      <point x="254" y="17"/>
      <point x="305" y="-4"/>
      <point x="361" y="-4" type="curve" smooth="yes"/>
      <point x="463" y="-4"/>
      <point x="528" y="53"/>
    </contour>
  </outline>
</glyph>
<glyph name="h.sc" format="2">
  <advance width="619"/>
  <anchor x="310" y="560" name="top"/>
  <anchor x="529" y="0" name="ogonek"/>
  <anchor x="310" y="0" name="bottom"/>
  <anchor x="529" y="0" name="bottomC"/>
  <outline>
    <contour>
      <point x="513" y="560" type="line"/>
      <point x="513" y="0" type="line"/>
      <point x="529" y="0" type="line"/>
      <point x="529" y="560" type="line"/>
    </contour>
    <contour>
      <point x="90" y="560" type="line"/>
      <point x="90" y="0" type="line"/>
      <point x="106" y="0" type="line"/>
      <point x="106" y="560" type="line"/>
    </contour>
    <contour>
      <point x="98" y="293" type="line"/>
      <point x="98" y="279" type="line"/>
      <point x="522" y="279" type="line"/>
      <point x="522" y="293" type="line"/>
    </contour>
  </outline>
</glyph>
<glyph name="j.ogonek" format="2">
  <advance width="202"/>
  <anchor x="127" y="632" name="top"/>
  <anchor x="98" y="-204" name="ogonek"/>
  <anchor x="69" y="-210" name="bottom"/>
  <anchor x="69" y="-210" name="bottomC"/>
  <outline>
    <contour>
      <point x="105" y="620" type="curve" smooth="yes"/>
      <point x="105" y="607"/>
      <point x="114" y="598"/>
      <point x="127" y="598" type="curve" smooth="yes"/>
      <point x="140" y="598"/>
      <point x="149" y="607"/>
      <point x="149" y="620" type="curve" smooth="yes"/>
      <point x="149" y="633"/>
      <point x="140" y="642"/>
      <point x="127" y="642" type="curve" smooth="yes"/>
      <point x="114" y="642"/>
      <point x="105" y="633"/>
    </contour>
    <component base="jdotless.ogonek"/>
  </outline>
</glyph>
<glyph name="longs.component" format="2">
  <advance width="189"/>
  <anchor x="168" y="730" name="top"/>
  <anchor x="97" y="0" name="ogonek"/>
  <anchor x="89" y="0" name="bottom"/>
  <anchor x="97" y="0" name="bottomC"/>
  <outline>
    <contour>
      <point x="97" y="0" type="line"/>
      <point x="97" y="592" type="line" smooth="yes"/>
      <point x="97" y="678"/>
      <point x="129" y="721"/>
      <point x="190" y="721" type="curve" smooth="yes"/>
      <point x="221" y="721"/>
      <point x="232" y="715"/>
      <point x="249" y="698" type="curve"/>
      <point x="255" y="712" type="line"/>
      <point x="239" y="726"/>
      <point x="226" y="735"/>
      <point x="190" y="735" type="curve" smooth="yes"/>
      <point x="121" y="735"/>
      <point x="81" y="687"/>
      <point x="81" y="592" type="curve" smooth="yes"/>
      <point x="81" y="0" type="line"/>
    </contour>
  </outline>
</glyph>
<glyph name="longs_l" format="2">
  <advance width="446"/>
  <anchor x="425" y="360" name="center"/>
  <anchor x="388" y="0" name="bottom"/>
  <anchor x="298" y="730" name="top"/>
  <anchor x="356" y="0" name="bottomC"/>
  <anchor x="420" y="730" name="topright"/>
  <anchor x="430" y="0" name="ogonek"/>
  <outline>
    <contour>
      <point x="97" y="0" type="line"/>
      <point x="97" y="592" type="line" smooth="yes"/>
      <point x="97" y="678"/>
      <point x="129" y="721"/>
      <point x="190" y="721" type="curve" smooth="yes"/>
      <point x="221" y="721"/>
      <point x="232" y="715"/>
      <point x="249" y="698" type="curve"/>
      <point x="255" y="710" type="line"/>
      <point x="239" y="724"/>
      <point x="226" y="735"/>
      <point x="190" y="735" type="curve" smooth="yes"/>
      <point x="121" y="735"/>
      <point x="81" y="687"/>
      <point x="81" y="592" type="curve" smooth="yes"/>
      <point x="81" y="0" type="line"/>
    </contour>
    <component base="l" xOffset="209"/>
  </outline>
</glyph>
<glyph name="lslash.sc" format="2">
  <advance width="498"/>
  <anchor x="313" y="0" name="bottom"/>
  <anchor x="111" y="560" name="top"/>
  <anchor x="484" y="0" name="ogonek"/>
  <anchor x="241" y="560" name="topright"/>
  <anchor x="313" y="0" name="bottomC"/>
  <outline>
    <contour>
      <point x="11" y="196" type="line"/>
      <point x="11" y="179" type="line"/>
      <point x="298" y="357" type="line"/>
      <point x="298" y="373" type="line"/>
    </contour>
    <component base="l.sc" xOffset="13"/>
  </outline>
</glyph>
<glyph name="nine.sc" format="2">
  <advance width="505"/>
  <outline>
    <contour>
      <point x="449" y="282" type="curve" smooth="yes"/>
      <point x="449" y="464"/>
      <point x="376" y="568"/>
      <point x="242" y="568" type="curve" smooth="yes"/>
      <point x="127" y="568"/>
      <point x="53" y="498"/>
      <point x="53" y="396" type="curve" smooth="yes"/>
      <point x="53" y="295"/>
      <point x="124" y="224"/>
      <point x="239" y="224" type="curve" smooth="yes"/>
      <point x="329" y="224"/>
      <point x="425" y="282"/>
      <point x="423" y="396" type="curve"/>
      <point x="424" y="396" type="line"/>
      <point x="430" y="360"/>
      <point x="434" y="321"/>
      <point x="434" y="282" type="curve" smooth="yes"/>
      <point x="434" y="147"/>
      <point x="388" y="6"/>
      <point x="243" y="6" type="curve" smooth="yes"/>
      <point x="145" y="6"/>
      <point x="88" y="51"/>
      <point x="73" y="119" type="curve"/>
      <point x="58" y="110" type="line"/>
      <point x="74" y="40"/>
      <point x="146" y="-8"/>
      <point x="243" y="-8" type="curve" smooth="yes"/>
      <point x="362" y="-8"/>
      <point x="449" y="87"/>
    </contour>
    <contour>
      <point x="69" y="395" type="curve" smooth="yes"/>
      <point x="69" y="491"/>
      <point x="136" y="554"/>
      <point x="243" y="554" type="curve" smooth="yes"/>
      <point x="340" y="554"/>
      <point x="412" y="483"/>
      <point x="412" y="395" type="curve" smooth="yes"/>
      <point x="412" y="319"/>
      <point x="348" y="238"/>
      <point x="239" y="238" type="curve" smooth="yes"/>
      <point x="136" y="238"/>
      <point x="69" y="301"/>
    </contour>
  </outline>
</glyph>
<glyph name="oslash.sc" format="2">
  <advance width="634"/>
  <anchor x="317" y="560" name="top"/>
  <anchor x="387" y="0" name="ogonek"/>
  <anchor x="317" y="0" name="bottom"/>
  <anchor x="317" y="0" name="bottomC"/>
  <outline>
    <contour>
      <point x="538" y="585" type="line"/>
      <point x="479" y="507" type="line"/>
      <point x="491" y="499" type="line"/>
      <point x="556" y="585" type="line"/>
    </contour>
    <contour>
      <point x="144" y="61" type="line"/>
      <point x="154" y="50" type="line"/>
      <point x="491" y="499" type="line"/>
      <point x="479" y="507" type="line"/>
    </contour>
    <contour>
      <point x="97" y="-26" type="line"/>
      <point x="154" y="50" type="line"/>
      <point x="144" y="61" type="line"/>
      <point x="79" y="-26" type="line"/>
    </contour>
    <component base="o.sc"/>
  </outline>
</glyph>
<glyph name="p.sc" format="2">
  <advance width="501"/>
  <anchor x="243" y="560" name="top"/>
  <anchor x="98" y="0" name="bottom"/>
  <outline>
    <contour>
      <point x="271" y="246" type="line" smooth="yes"/>
      <point x="395" y="246"/>
      <point x="469" y="304"/>
      <point x="469" y="402" type="curve" smooth="yes"/>
      <point x="469" y="501"/>
      <point x="395" y="560"/>
      <point x="271" y="560" type="curve" smooth="yes"/>
      <point x="98" y="560" type="line"/>
      <point x="98" y="546" type="line"/>
      <point x="270" y="546" type="line" smooth="yes"/>
      <point x="385" y="546"/>
      <point x="453" y="492"/>
      <point x="453" y="402" type="curve" smooth="yes"/>
      <point x="453" y="313"/>
      <point x="385" y="260"/>
      <point x="270" y="260" type="curve" smooth="yes"/>
      <point x="98" y="260" type="line"/>
      <point x="98" y="246" type="line"/>
    </contour>
    <contour>
      <point x="106" y="0" type="line"/>
      <point x="106" y="560" type="line"/>
      <point x="90" y="560" type="line"/>
      <point x="90" y="0" type="line"/>
    </contour>
  </outline>
</glyph>
<glyph name="periodsuperior" format="2">
  <advance width="128"/>
  <outline>
    <contour>
      <point x="45" y="349" type="curve" smooth="yes"/>
      <point x="45" y="338"/>
      <point x="53" y="330"/>
      <point x="64" y="330" type="curve" smooth="yes"/>
      <point x="75" y="330"/>
      <point x="83" y="338"/>
      <point x="83" y="349" type="curve" smooth="yes"/>
      <point x="83" y="360"/>
      <point x="75" y="368"/>
      <point x="64" y="368" type="curve" smooth="yes"/>
      <point x="53" y="368"/>
      <point x="45" y="360"/>
    </contour>
  </outline>
</glyph>
<glyph name="registeredsuperior" format="2">
  <advance width="484"/>
  <outline>
    <contour>
      <point x="464" y="449" type="curve" smooth="yes"/>
      <point x="464" y="575"/>
      <point x="369" y="670"/>
      <point x="242" y="670" type="curve" smooth="yes"/>
      <point x="115" y="670"/>
      <point x="20" y="575"/>
      <point x="20" y="449" type="curve" smooth="yes"/>
      <point x="20" y="323"/>
      <point x="115" y="228"/>
      <point x="242" y="228" type="curve" smooth="yes"/>
      <point x="369" y="228"/>
      <point x="464" y="323"/>
    </contour>
    <contour>
      <point x="178" y="326" type="line"/>
      <point x="178" y="567" type="line"/>
      <point x="162" y="567" type="line"/>
      <point x="162" y="326" type="line"/>
    </contour>
    <contour>
      <point x="346" y="326" type="line"/>
      <point x="270" y="442" type="line"/>
      <point x="256" y="436" type="line"/>
      <point x="327" y="326" type="line"/>
    </contour>
    <contour>
      <point x="36" y="449" type="curve" smooth="yes"/>
      <point x="36" y="566"/>
      <point x="125" y="655"/>
      <point x="242" y="655" type="curve" smooth="yes"/>
      <point x="359" y="655"/>
      <point x="448" y="566"/>
      <point x="448" y="449" type="curve" smooth="yes"/>
      <point x="448" y="331"/>
      <point x="359" y="242"/>
      <point x="242" y="242" type="curve" smooth="yes"/>
      <point x="125" y="242"/>
      <point x="36" y="331"/>
    </contour>
    <contour>
      <point x="260" y="432" type="line" smooth="yes"/>
      <point x="312" y="432"/>
      <point x="342" y="456"/>
      <point x="342" y="499" type="curve" smooth="yes"/>
      <point x="342" y="544"/>
      <point x="312" y="567"/>
      <point x="259" y="567" type="curve" smooth="yes"/>
      <point x="170" y="567" type="line"/>
      <point x="170" y="553" type="line"/>
      <point x="263" y="553" type="line" smooth="yes"/>
      <point x="306" y="553"/>
      <point x="326" y="537"/>
      <point x="326" y="500" type="curve" smooth="yes"/>
      <point x="326" y="463"/>
      <point x="306" y="446"/>
      <point x="263" y="446" type="curve" smooth="yes"/>
      <point x="170" y="446" type="line"/>
      <point x="170" y="432" type="line"/>
    </contour>
  </outline>
</glyph>
<glyph name="s.sc" format="2">
  <advance width="530"/>
  <anchor x="259" y="560" name="top"/>
  <anchor x="344" y="0" name="ogonek"/>
  <anchor x="278" y="0" name="bottom"/>
  <anchor x="250" y="0" name="bottomC"/>
  <outline>
    <contour>
      <point x="56" y="417" type="curve" smooth="yes"/>
      <point x="56" y="205"/>
      <point x="470" y="329"/>
      <point x="470" y="136" type="curve" smooth="yes"/>
      <point x="470" y="52"/>
      <point x="384" y="6"/>
      <point x="275" y="6" type="curve" smooth="yes"/>
      <point x="161" y="6"/>
      <point x="72" y="50"/>
      <point x="55" y="148" type="curve"/>
      <point x="40" y="140" type="line"/>
      <point x="60" y="38"/>
      <point x="154" y="-8"/>
      <point x="275" y="-8" type="curve" smooth="yes"/>
      <point x="400" y="-8"/>
      <point x="486" y="51"/>
      <point x="486" y="136" type="curve" smooth="yes"/>
      <point x="486" y="347"/>
      <point x="72" y="223"/>
      <point x="72" y="417" type="curve" smooth="yes"/>
      <point x="72" y="494"/>
      <point x="146" y="554"/>
      <point x="263" y="554" type="curve" smooth="yes"/>
      <point x="368" y="554"/>
      <point x="437" y="517"/>
      <point x="461" y="430" type="curve"/>
      <point x="476" y="439" type="line"/>
      <point x="448" y="528"/>
      <point x="373" y="568"/>
      <point x="263" y="568" type="curve" smooth="yes"/>
      <point x="133" y="568"/>
      <point x="56" y="497"/>
    </contour>
  </outline>
</glyph>
<glyph name="sterling.part.tf" format="2">
  <advance width="540"/>
  <outline>
    <contour>
      <point x="148" y="488" type="curve" smooth="yes"/>
      <point x="148" y="428"/>
      <point x="163" y="384"/>
      <point x="208" y="316" type="curve" smooth="yes"/>
      <point x="251" y="250"/>
      <point x="265" y="210"/>
      <point x="265" y="154" type="curve" smooth="yes"/>
      <point x="265" y="71"/>
      <point x="210" y="4"/>
      <point x="139" y="4" type="curve" smooth="yes"/>
      <point x="94" y="4"/>
      <point x="69" y="24"/>
      <point x="69" y="56" type="curve" smooth="yes"/>
      <point x="69" y="89"/>
      <point x="96" y="111"/>
      <point x="146" y="111" type="curve" smooth="yes"/>
      <point x="255" y="111"/>
      <point x="274" y="-10"/>
      <point x="398" y="-10" type="curve" smooth="yes"/>
      <point x="469" y="-10"/>
      <point x="519" y="27"/>
      <point x="519" y="115" type="curve"/>
      <point x="505" y="115" type="line"/>
      <point x="504" y="43"/>
      <point x="468" y="4"/>
      <point x="397" y="4" type="curve" smooth="yes"/>
      <point x="278" y="4"/>
      <point x="263" y="125"/>
      <point x="145" y="125" type="curve" smooth="yes"/>
      <point x="87" y="125"/>
      <point x="53" y="98"/>
      <point x="53" y="56" type="curve" smooth="yes"/>
      <point x="53" y="16"/>
      <point x="84" y="-10"/>
      <point x="138" y="-10" type="curve" smooth="yes"/>
      <point x="216" y="-10"/>
      <point x="281" y="61"/>
      <point x="281" y="156" type="curve" smooth="yes"/>
      <point x="281" y="211"/>
      <point x="266" y="253"/>
      <point x="223" y="322" type="curve" smooth="yes"/>
      <point x="179" y="391"/>
      <point x="164" y="431"/>
      <point x="164" y="488" type="curve" smooth="yes"/>
      <point x="164" y="590"/>
      <point x="228" y="656"/>
      <point x="329" y="656" type="curve" smooth="yes"/>
      <point x="410" y="656"/>
      <point x="469" y="601"/>
      <point x="477" y="519" type="curve"/>
      <point x="492" y="525" type="line"/>
      <point x="483" y="613"/>
      <point x="421" y="670"/>
      <point x="329" y="670" type="curve" smooth="yes"/>
      <point x="221" y="670"/>
      <point x="148" y="598"/>
    </contour>
  </outline>
</glyph>
<glyph name="sterling.tf" format="2">
  <advance width="604"/>
  <outline>
    <contour>
      <point x="126" y="317" type="line"/>
      <point x="126" y="303" type="line"/>
      <point x="479" y="303" type="line"/>
      <point x="479" y="317" type="line"/>
    </contour>
    <component base="sterling.part.tf" xOffset="32"/>
  </outline>
</glyph>
<glyph name="swash_bttmleft" format="2">
  <advance width="439"/>
  <outline>
    <contour>
      <point x="287" y="46" type="curve" smooth="yes"/>
      <point x="287" y="202" type="line"/>
      <point x="271" y="202" type="line"/>
      <point x="271" y="43" type="line" smooth="yes"/>
      <point x="271" y="-44"/>
      <point x="221" y="-96"/>
      <point x="137" y="-96" type="curve" smooth="yes"/>
      <point x="61" y="-96"/>
      <point x="16" y="-62"/>
      <point x="6" y="13" type="curve"/>
      <point x="-7" y="6" type="line"/>
      <point x="3" y="-73"/>
      <point x="53" y="-110"/>
      <point x="137" y="-110" type="curve" smooth="yes"/>
      <point x="231" y="-110"/>
      <point x="287" y="-52"/>
    </contour>
  </outline>
</glyph>
<glyph name="t.sc" format="2">
  <advance width="486"/>
  <anchor x="243" y="0" name="bottom"/>
  <anchor x="243" y="560" name="top"/>
  <anchor x="251" y="0" name="ogonek"/>
  <anchor x="242" y="312" name="center"/>
  <anchor x="251" y="0" name="bottomC"/>
  <outline>
    <contour>
      <point x="235" y="554" type="line"/>
      <point x="235" y="0" type="line"/>
      <point x="251" y="0" type="line"/>
      <point x="251" y="554" type="line"/>
    </contour>
    <contour>
      <point x="13" y="560" type="line"/>
      <point x="13" y="546" type="line"/>
      <point x="473" y="546" type="line"/>
      <point x="473" y="560" type="line"/>
    </contour>
  </outline>
</glyph>
<glyph name="t.swsh" format="2">
  <advance width="409"/>
  <anchor x="119" y="281" name="center"/>
  <anchor x="220" y="0" name="bottom"/>
  <anchor x="119" y="730" name="top"/>
  <anchor x="199" y="0" name="bottomC"/>
  <anchor x="247" y="767" name="topright"/>
  <anchor x="302" y="9" name="ogonek"/>
  <outline>
    <contour>
      <point x="111" y="630" type="line"/>
      <point x="111" y="126" type="line" smooth="yes"/>
      <point x="111" y="37"/>
      <point x="150" y="-10"/>
      <point x="231" y="-10" type="curve" smooth="yes"/>
      <point x="271" y="-10"/>
      <point x="307" y="7"/>
      <point x="327" y="28" type="curve"/>
      <point x="319" y="41" type="line"/>
      <point x="295" y="15"/>
      <point x="266" y="4"/>
      <point x="231" y="4" type="curve" smooth="yes"/>
      <point x="159" y="4"/>
      <point x="127" y="46"/>
      <point x="127" y="126" type="curve" smooth="yes"/>
      <point x="127" y="635" type="line"/>
    </contour>
    <contour>
      <point x="302" y="500" type="curve" smooth="yes"/>
      <point x="11" y="500" type="line"/>
      <point x="11" y="486" type="line"/>
      <point x="307" y="486" type="line" smooth="yes"/>
      <point x="393" y="486"/>
      <point x="438" y="510"/>
      <point x="461" y="544" type="curve"/>
      <point x="453" y="555" type="line"/>
      <point x="425" y="513"/>
      <point x="374" y="500"/>
    </contour>
  </outline>
</glyph>
<glyph name="t_t.liga" format="2">
  <advance width="658"/>
  <anchor x="549" y="0" name="bottom"/>
  <anchor x="576" y="767" name="topright"/>
  <anchor x="448" y="281" name="center"/>
  <outline>
    <contour>
      <point x="111" y="630" type="line"/>
      <point x="111" y="126" type="line" smooth="yes"/>
      <point x="111" y="37"/>
      <point x="150" y="-10"/>
      <point x="231" y="-10" type="curve" smooth="yes"/>
      <point x="271" y="-10"/>
      <point x="307" y="7"/>
      <point x="327" y="28" type="curve"/>
      <point x="319" y="41" type="line"/>
      <point x="295" y="15"/>
      <point x="266" y="4"/>
      <point x="231" y="4" type="curve" smooth="yes"/>
      <point x="159" y="4"/>
      <point x="127" y="46"/>
      <point x="127" y="126" type="curve" smooth="yes"/>
      <point x="127" y="635" type="line"/>
    </contour>
    <contour>
      <point x="11" y="500" type="line"/>
      <point x="11" y="486" type="line"/>
      <point x="320" y="486" type="line"/>
      <point x="320" y="500" type="line"/>
    </contour>
    <contour>
      <point x="440" y="630" type="line"/>
      <point x="440" y="126" type="line" smooth="yes"/>
      <point x="440" y="37"/>
      <point x="479" y="-10"/>
      <point x="560" y="-10" type="curve" smooth="yes"/>
      <point x="600" y="-10"/>
      <point x="636" y="7"/>
      <point x="656" y="28" type="curve"/>
      <point x="648" y="41" type="line"/>
      <point x="624" y="15"/>
      <point x="595" y="4"/>
      <point x="560" y="4" type="curve" smooth="yes"/>
      <point x="488" y="4"/>
      <point x="456" y="46"/>
      <point x="456" y="126" type="curve" smooth="yes"/>
      <point x="456" y="635" type="line"/>
    </contour>
    <contour>
      <point x="340" y="500" type="line"/>
      <point x="340" y="486" type="line"/>
      <point x="649" y="486" type="line"/>
      <point x="649" y="500" type="line"/>
    </contour>
  </outline>
</glyph>
<glyph name="three.osf" format="2">
  <advance width="521"/>
  <outline>
    <contour>
      <point x="62" y="435" type="curve"/>
      <point x="78" y="426" type="line"/>
      <point x="102" y="507"/>
      <point x="168" y="556"/>
      <point x="254" y="556" type="curve" smooth="yes"/>
      <point x="362" y="556"/>
      <point x="427" y="497"/>
      <point x="427" y="398" type="curve" smooth="yes"/>
      <point x="427" y="312"/>
      <point x="375" y="240"/>
      <point x="275" y="240" type="curve" smooth="yes"/>
      <point x="225" y="240" type="line"/>
      <point x="225" y="226" type="line"/>
      <point x="275" y="226" type="line" smooth="yes"/>
      <point x="385" y="226"/>
      <point x="444" y="159"/>
      <point x="444" y="71" type="curve" smooth="yes"/>
      <point x="444" y="-33"/>
      <point x="362" y="-96"/>
      <point x="259" y="-96" type="curve" smooth="yes"/>
      <point x="142" y="-96"/>
      <point x="73" y="-38"/>
      <point x="55" y="50" type="curve"/>
      <point x="41" y="41" type="line"/>
      <point x="62" y="-50"/>
      <point x="137" y="-110"/>
      <point x="259" y="-110" type="curve" smooth="yes"/>
      <point x="370" y="-110"/>
      <point x="460" y="-40"/>
      <point x="460" y="70" type="curve" smooth="yes"/>
      <point x="460" y="160"/>
      <point x="400" y="226"/>
      <point x="315" y="232" type="curve"/>
      <point x="315" y="233" type="line"/>
      <point x="398" y="247"/>
      <point x="443" y="316"/>
      <point x="443" y="398" type="curve" smooth="yes"/>
      <point x="443" y="506"/>
      <point x="372" y="570"/>
      <point x="254" y="570" type="curve" smooth="yes"/>
      <point x="163" y="570"/>
      <point x="91" y="519"/>
    </contour>
  </outline>
</glyph>
<glyph name="three.sc" format="2">
  <advance width="466"/>
  <outline>
    <contour>
      <point x="59" y="453" type="curve"/>
      <point x="74" y="446" type="line"/>
      <point x="95" y="514"/>
      <point x="154" y="554"/>
      <point x="229" y="554" type="curve" smooth="yes"/>
      <point x="323" y="554"/>
      <point x="380" y="505"/>
      <point x="380" y="422" type="curve" smooth="yes"/>
      <point x="380" y="350"/>
      <point x="335" y="289"/>
      <point x="247" y="289" type="curve" smooth="yes"/>
      <point x="203" y="289" type="line"/>
      <point x="203" y="276" type="line"/>
      <point x="247" y="276" type="line" smooth="yes"/>
      <point x="344" y="276"/>
      <point x="395" y="220"/>
      <point x="395" y="145" type="curve" smooth="yes"/>
      <point x="395" y="59"/>
      <point x="324" y="5"/>
      <point x="233" y="5" type="curve" smooth="yes"/>
      <point x="131" y="5"/>
      <point x="71" y="54"/>
      <point x="55" y="128" type="curve"/>
      <point x="41" y="120" type="line"/>
      <point x="60" y="42"/>
      <point x="126" y="-8"/>
      <point x="233" y="-8" type="curve" smooth="yes"/>
      <point x="332" y="-8"/>
      <point x="411" y="51"/>
      <point x="411" y="145" type="curve" smooth="yes"/>
      <point x="411" y="221"/>
      <point x="358" y="277"/>
      <point x="283" y="282" type="curve"/>
      <point x="283" y="282" type="line"/>
      <point x="356" y="294"/>
      <point x="396" y="352"/>
      <point x="396" y="422" type="curve" smooth="yes"/>
      <point x="396" y="514"/>
      <point x="333" y="568"/>
      <point x="229" y="568" type="curve" smooth="yes"/>
      <point x="149" y="568"/>
      <point x="85" y="525"/>
    </contour>
  </outline>
</glyph>
<glyph name="uni0162.swsh" format="2">
  <advance width="620"/>
  <anchor x="356" y="0" name="bottomC"/>
  <anchor x="348" y="660" name="top"/>
  <anchor x="356" y="0" name="ogonek"/>
  <anchor x="348" y="371" name="center"/>
  <anchor x="352" y="0" name="bottom"/>
  <outline>
    <contour>
      <point x="424" y="-117" type="curve" smooth="yes"/>
      <point x="424" y="-160"/>
      <point x="395" y="-189"/>
      <point x="350" y="-189" type="curve" smooth="yes"/>
      <point x="309" y="-189"/>
      <point x="287" y="-174"/>
      <point x="266" y="-148" type="curve"/>
      <point x="257" y="-158" type="line"/>
      <point x="277" y="-184"/>
      <point x="303" y="-202"/>
      <point x="350" y="-202" type="curve" smooth="yes"/>
      <point x="404" y="-202"/>
      <point x="439" y="-168"/>
      <point x="439" y="-117" type="curve" smooth="yes"/>
      <point x="439" y="-65"/>
      <point x="412" y="-32"/>
      <point x="355" y="3" type="curve"/>
      <point x="340" y="0" type="line"/>
      <point x="397" y="-36"/>
      <point x="424" y="-68"/>
    </contour>
    <component base="T.swsh"/>
  </outline>
</glyph>
<glyph name="uni20BA.tf" format="2">
  <advance width="604"/>
  <outline>
    <contour>
      <point x="534" y="257" type="line"/>
      <point x="534" y="105"/>
      <point x="446" y="14"/>
      <point x="299" y="14" type="curve" smooth="yes"/>
      <point x="180" y="14" type="line"/>
      <point x="180" y="0" type="line"/>
      <point x="308" y="0" type="line" smooth="yes"/>
      <point x="459" y="0"/>
      <point x="549" y="96"/>
      <point x="549" y="257" type="curve"/>
    </contour>
    <contour>
      <point x="172" y="660" type="line"/>
      <point x="172" y="0" type="line"/>
      <point x="188" y="0" type="line"/>
      <point x="188" y="660" type="line"/>
    </contour>
    <contour>
      <point x="55" y="261" type="line"/>
      <point x="55" y="246" type="line"/>
      <point x="415" y="352" type="line"/>
      <point x="415" y="367" type="line"/>
    </contour>
    <contour>
      <point x="55" y="391" type="line"/>
      <point x="55" y="376" type="line"/>
      <point x="415" y="483" type="line"/>
      <point x="415" y="498" type="line"/>
    </contour>
  </outline>
</glyph>
<glyph name="uogonek_j" format="2">
  <advance width="750"/>
  <anchor x="599" y="-210" name="bottomC"/>
  <anchor x="657" y="632" name="top"/>
  <anchor x="628" y="-204" name="ogonek"/>
  <anchor x="599" y="-210" name="bottom"/>
  <outline>
    <contour>
      <point x="470" y="183" type="curve"/>
      <point x="463" y="196" type="line"/>
      <point x="463" y="122"/>
      <point x="401" y="4"/>
      <point x="257" y="4" type="curve" smooth="yes"/>
      <point x="154" y="4"/>
      <point x="95" y="64"/>
      <point x="95" y="169" type="curve" smooth="yes"/>
      <point x="95" y="500" type="line"/>
      <point x="79" y="500" type="line"/>
      <point x="79" y="167" type="line" smooth="yes"/>
      <point x="79" y="54"/>
      <point x="143" y="-10"/>
      <point x="254" y="-10" type="curve" smooth="yes"/>
      <point x="381" y="-10"/>
      <point x="470" y="77"/>
    </contour>
    <contour>
      <point x="495" y="-183" type="curve"/>
      <point x="495" y="-168" type="line"/>
      <point x="481" y="-181"/>
      <point x="464" y="-188"/>
      <point x="430" y="-188" type="curve" smooth="yes"/>
      <point x="388" y="-188"/>
      <point x="357" y="-167"/>
      <point x="357" y="-128" type="curve" smooth="yes"/>
      <point x="357" y="-78"/>
      <point x="391" y="-52"/>
      <point x="479" y="0" type="curve"/>
      <point x="467" y="9" type="line"/>
      <point x="376" y="-44"/>
      <point x="342" y="-75"/>
      <point x="342" y="-128" type="curve" smooth="yes"/>
      <point x="342" y="-176"/>
      <point x="380" y="-202"/>
      <point x="430" y="-202" type="curve" smooth="yes"/>
      <point x="462" y="-202"/>
      <point x="481" y="-193"/>
    </contour>
    <contour>
      <point x="479" y="0" type="line"/>
      <point x="479" y="199" type="line"/>
      <point x="479" y="500" type="line"/>
      <point x="463" y="500" type="line"/>
      <point x="463" y="199" type="line"/>
      <point x="463" y="165" type="line"/>
      <point x="463" y="0" type="line"/>
    </contour>
    <component base="j.ogonek" xOffset="530"/>
  </outline>
</glyph>
<glyph name="v.sc" format="2">
  <advance width="514"/>
  <anchor x="257" y="560" name="top"/>
  <anchor x="267" y="0" name="ogonek"/>
  <anchor x="257" y="0" name="bottom"/>
  <anchor x="267" y="0" name="bottomC"/>
  <outline>
    <contour>
      <point x="480" y="560" type="line"/>
      <point x="281" y="76" type="line"/>
      <point x="257" y="18" type="line"/>
      <point x="257" y="18" type="line"/>
      <point x="233" y="77" type="line"/>
      <point x="35" y="560" type="line"/>
      <point x="18" y="560" type="line"/>
      <point x="247" y="0" type="line"/>
      <point x="267" y="0" type="line"/>
      <point x="496" y="560" type="line"/>
    </contour>
  </outline>
</glyph>
<glyph name="whiteCircle.case" format="2">
  <advance width="660"/>
  <outline>
    <contour>
      <point x="585" y="330" type="curve" smooth="yes"/>
      <point x="585" y="476"/>
      <point x="476" y="585"/>
      <point x="330" y="585" type="curve" smooth="yes"/>
      <point x="184" y="585"/>
      <point x="75" y="476"/>
      <point x="75" y="330" type="curve" smooth="yes"/>
      <point x="75" y="184"/>
      <point x="184" y="75"/>
      <point x="330" y="75" type="curve" smooth="yes"/>
      <point x="476" y="75"/>
      <point x="585" y="184"/>
    </contour>
    <contour>
      <point x="91" y="330" type="curve" smooth="yes"/>
      <point x="91" y="468"/>
      <point x="193" y="571"/>
      <point x="330" y="571" type="curve" smooth="yes"/>
      <point x="467" y="571"/>
      <point x="569" y="468"/>
      <point x="569" y="330" type="curve" smooth="yes"/>
      <point x="569" y="192"/>
      <point x="467" y="89"/>
      <point x="330" y="89" type="curve" smooth="yes"/>
      <point x="193" y="89"/>
      <point x="91" y="192"/>
    </contour>
  </outline>
</glyph>
<glyph name="y.swsh" format="2">
  <advance width="521"/>
  <anchor x="244" y="500" name="top"/>
  <anchor x="109" y="-210" name="ogonek"/>
  <anchor x="123" y="-210" name="bottom"/>
  <anchor x="57" y="-210" name="bottomC"/>
  <outline>
    <contour>
      <point x="210" y="-101" type="curve" smooth="yes"/>
      <point x="441" y="457" type="line" smooth="yes"/>
      <point x="465" y="514"/>
      <point x="493" y="552"/>
      <point x="544" y="552" type="curve" smooth="yes"/>
      <point x="565" y="552"/>
      <point x="580" y="548"/>
      <point x="602" y="530" type="curve"/>
      <point x="607" y="546" type="line"/>
      <point x="587" y="563"/>
      <point x="572" y="570"/>
      <point x="544" y="570" type="curve" smooth="yes"/>
      <point x="494" y="570"/>
      <point x="460" y="545"/>
      <point x="427" y="467" type="curve" smooth="yes"/>
      <point x="260" y="61" type="line"/>
      <point x="243" y="18" type="line"/>
      <point x="225" y="60" type="line"/>
      <point x="40" y="500" type="line"/>
      <point x="22" y="500" type="line"/>
      <point x="180" y="128" type="line"/>
      <point x="235" y="-1" type="line"/>
      <point x="195" y="-98" type="line" smooth="yes"/>
      <point x="162" y="-178"/>
      <point x="127" y="-201"/>
      <point x="75" y="-201" type="curve" smooth="yes"/>
      <point x="47" y="-201"/>
      <point x="20" y="-193"/>
      <point x="5" y="-170" type="curve"/>
      <point x="-4" y="-183" type="line"/>
      <point x="10" y="-204"/>
      <point x="39" y="-215"/>
      <point x="74" y="-215" type="curve" smooth="yes"/>
      <point x="136" y="-215"/>
      <point x="174" y="-188"/>
    </contour>
  </outline>
</glyph>
<glyph name="ydieresis.titl.sc" format="2">
  <advance width="458"/>
  <outline>
    <contour>
      <point x="310" y="545" type="curve" smooth="yes"/>
      <point x="310" y="558"/>
      <point x="301" y="567"/>
      <point x="288" y="567" type="curve" smooth="yes"/>
      <point x="275" y="567"/>
      <point x="266" y="558"/>
      <point x="266" y="545" type="curve" smooth="yes"/>
      <point x="266" y="532"/>
      <point x="275" y="523"/>
      <point x="288" y="523" type="curve" smooth="yes"/>
      <point x="301" y="523"/>
      <point x="310" y="532"/>
    </contour>
    <contour>
      <point x="199" y="545" type="curve" smooth="yes"/>
      <point x="199" y="558"/>
      <point x="190" y="567"/>
      <point x="177" y="567" type="curve" smooth="yes"/>
      <point x="164" y="567"/>
      <point x="155" y="558"/>
      <point x="155" y="545" type="curve" smooth="yes"/>
      <point x="155" y="532"/>
      <point x="164" y="523"/>
      <point x="177" y="523" type="curve" smooth="yes"/>
      <point x="190" y="523"/>
      <point x="199" y="532"/>
    </contour>
    <contour>
      <point x="426" y="560" type="line"/>
      <point x="312" y="368" type="line"/>
      <point x="232" y="233" type="line"/>
      <point x="152" y="368" type="line"/>
      <point x="39" y="560" type="line"/>
      <point x="20" y="560" type="line"/>
      <point x="224" y="217" type="line"/>
      <point x="224" y="0" type="line"/>
      <point x="240" y="0" type="line"/>
      <point x="240" y="217" type="line"/>
      <point x="444" y="560" type="line"/>
    </contour>
  </outline>
</glyph>
<glyph name="zero.tosf.zero" format="2">
  <advance width="604"/>
  <outline>
    <contour>
      <point x="446" y="523" type="line"/>
      <point x="432" y="533" type="line"/>
      <point x="184" y="37" type="line"/>
      <point x="197" y="27" type="line"/>
    </contour>
    <component base="zero.tosf"/>
  </outline>
</glyph>
